<svg xmlns="http://www.w3.org/2000/svg" viewBox="0 0 150 150"><defs><style>.a{fill:#fff;}</style></defs><path class="a" d="M73.25,0c2.32.19,4.66.32,7,.59,4.26.5,8.64.61,12.74,1.71,11.61,3.12,18.79,10.89,22.21,22.34a46.82,46.82,0,0,1,.16,25.29c0,.19-.1.38-.14.57-.1.47-.19,1-.29,1.47,5,3.42,5.6,8.4,4.62,13.77a25.15,25.15,0,0,1-5.75,12A9.72,9.72,0,0,1,108.69,81a2.19,2.19,0,0,0-1.2,1.21c-3.12,7.73-7.2,14.82-13.28,20.65a1.5,1.5,0,0,0-.54,1c.27,2.56.58,5.11,1,7.65.16,1.05.94,1.57,2,1.92,7,2.4,13.88,4.86,20.83,7.29,10,3.49,15.17,10.94,17.33,20.89a29.58,29.58,0,0,1,.66,5.22c.09,2.33-.85,3.19-3.15,3.19H17.72c-2.24,0-3.23-.86-3.14-3.08C15,136,21.06,124.56,32,121c6.91-2.22,13.66-4.92,20.5-7.34a3,3,0,0,0,2.3-2.39c.39-2.93.61-5.89.83-8.84,0-.34-.39-.74-.67-1.06-1.52-1.71-3.1-3.37-4.57-5.13a1.53,1.53,0,0,0-2-.59,9.56,9.56,0,0,1-9.2-1.07A6.57,6.57,0,0,1,36,88.45c.12-1.75.14-3.51.27-5.26a1.36,1.36,0,0,0-1-1.63,9.19,9.19,0,0,1-6.05-9c0-3.71,0-7.42,0-11.13a9.66,9.66,0,0,1,3.95-7.95,2.31,2.31,0,0,0,.76-1.66c-.15-5-.63-10-.55-15.07.16-10.47,4-19.17,12.91-25.23a2.78,2.78,0,0,0,1.4-2.47C47.88,4,48.13,3.5,53,2.12,56.1,1.26,59.31.88,62.47.28L63.87,0ZM54.66,93.93a35.33,35.33,0,0,0,9.87,8.83c8.45,5,17,4.4,24.61-1.81C95.9,95.41,100,88,103.11,80a1.21,1.21,0,0,0-.15-1c-2.64-3.36-3.09-7.29-3-11.35q.13-8,.31-15.95c0-2.2.07-4.39.13-6.59,0-.93-.27-1.34-1.29-1.49-4-.61-8-1.46-12-2A67.47,67.47,0,0,1,56.82,30c-.34-.23-.71-.42-1.1-.66a10.77,10.77,0,0,0-.56,1.17q-3.93,11.94-7.81,23.89a3,3,0,0,0,.07,1.25,54.3,54.3,0,0,1,.94,6c.16,3.56,0,7.13,0,10.69A10.4,10.4,0,0,1,46.86,78a2.17,2.17,0,0,0-.18,1.7c1.36,3,2.83,6,4.24,9,.43.9.93,1.11,1.95.8C56.93,88.19,61,87.05,65.11,86a1.72,1.72,0,0,0,1.55-1.68,9.05,9.05,0,0,1,1.39-3.63C71.31,75.82,78.81,75,83.36,78.8A8.18,8.18,0,0,1,82.87,92a10.9,10.9,0,0,1-14-1.05c-.34-.33-.94-.75-1.29-.66C63.36,91.44,59.11,92.67,54.66,93.93Zm75.68,51.13a4.54,4.54,0,0,0,0-.59c-.09-.58-.17-1.16-.29-1.73-1.71-8.16-5.78-14.4-14-17.3q-10.2-3.59-20.37-7.28a1.59,1.59,0,0,0-2.24.68c-5.23,7.54-10.52,15-15.8,22.53-1.92,2.74-3.42,2.72-5.37-.06-5.23-7.47-10.49-14.93-15.66-22.44a1.65,1.65,0,0,0-2.37-.7c-6.81,2.51-13.62,5-20.49,7.36a18.79,18.79,0,0,0-8.94,6.31,26.09,26.09,0,0,0-5.21,13.22ZM105.2,54c1.42-.75,2.88-1.5,4.3-2.28a1.33,1.33,0,0,0,.62-.71c2.32-8.85,2.87-17.67-.13-26.52C106.51,14.19,99.44,8,88.82,6.44A178.74,178.74,0,0,0,66.5,5c-3.84-.06-7.73.83-11.55,1.57-2.48.47-2.52.7-2.46,3.2a5.7,5.7,0,0,1-3.05,5.5c-5.27,3.23-8.46,8-10.2,14-2.18,7.41-.36,14.82-.54,22.2l4.15,1c1.65-5.37,3.13-10.73,5-16A100,100,0,0,1,52.6,25.32c1.07-2.16,2.29-2.28,4.33-1,1.41.88,2.78,1.81,4.18,2.71,6.66,4.28,13.7,7.59,21.62,8.84,6.31,1,12.59,2.16,18.87,3.32,2.58.48,3.17,1.17,3.48,3.75a23.68,23.68,0,0,1,.11,2.92C105.2,48.58,105.2,51.31,105.2,54ZM75,136.73c5.18-7.39,10.23-14.56,15.24-21.75a1.46,1.46,0,0,0,.13-1c-.54-2.24-1.14-4.46-1.72-6.71-9.39,5.4-18.88,4.45-28.08-1.17-.43,2.32-.75,4.53-1.28,6.7a2.29,2.29,0,0,0,.38,2.12c2.71,3.82,5.37,7.66,8.06,11.5ZM34,66.93c0,1.86,0,3.71,0,5.56a4.78,4.78,0,1,0,9.56,0c0-3.66,0-7.32,0-11a4.79,4.79,0,1,0-9.56,0C34,63.32,34,65.13,34,66.93Zm70.47,1.34a61.72,61.72,0,0,0,1.39,6.23c.74,2.22,1.88,2.4,3.49.7A21.41,21.41,0,0,0,114.77,65a10.48,10.48,0,0,0-.52-6.74c-1.06-2.34-3.14-2.8-5.08-1.11a11.28,11.28,0,0,0-1.81,2.09A17.35,17.35,0,0,0,104.5,68.27Zm-28,20.93c2.8,0,5.11-1.82,5.11-4s-2.21-3.9-5-4-5.25,1.71-5.3,3.92S73.66,89.23,76.54,89.2ZM46.6,91.05l-4.74-9.72a5.69,5.69,0,0,0-.75,1.61c-.13,1.51,0,3-.22,4.53A3.46,3.46,0,0,0,42.52,91,3.62,3.62,0,0,0,46.6,91.05Z"/></svg>