<?xml version="1.0" encoding="utf-8"?>
<!-- Generator: Adobe Illustrator 24.3.0, SVG Export Plug-In . SVG Version: 6.00 Build 0)  -->
<svg version="1.1" id="Layer_1" xmlns="http://www.w3.org/2000/svg" xmlns:xlink="http://www.w3.org/1999/xlink" x="0px" y="0px"
	 viewBox="0 0 58.4 58.4" style="enable-background:new 0 0 58.4 58.4;" xml:space="preserve">
<style type="text/css">
	.st0{fill:#17212B;}
	.st1{clip-path:url(#SVGID_2_);}
	.st2{fill:#FFFFFF;}
</style>
<circle class="st0" cx="29" cy="29.4" r="29.2"/>
<g>
	<defs>
		<circle id="SVGID_1_" cx="29" cy="29.4" r="29.2"/>
	</defs>
	<clipPath id="SVGID_2_">
		<use xlink:href="#SVGID_1_"  style="overflow:visible;"/>
	</clipPath>
	<g class="st1">
		<path class="st2" d="M45.9,55.1c0.2,0,0.7-0.2,0.9-0.2s0.7-0.2,0.9-0.2l0.4-0.2l0.4-0.2c0.2,0,0.7-0.2,0.9-0.2l0.9-0.2h0.4h0.4
			l0.9-0.2c0.2,0,0.7,0,0.9-0.2c0.7,0,1.3-0.2,2-0.2h0.9c0.2,0,0.7,0,0.9,0l2-0.2c0.7,0,1.3,0,2,0c0.7,0,1.3,0,2,0h0.9
			c0.2,0,0.2,0,0.4,0h0.4h2c0.2,0,0.7,0,0.9,0h0.9h0.9c0.2,0,0.2,0,0.4,0h0.4l2,0.2c0.7,0,1.3,0.2,2,0.2l2,0.2h0.4v0.4V56v0.7
			l-0.7-0.2c-0.4,0-0.7-0.2-1.1-0.2s-0.7-0.2-1.1-0.2S72.2,56,71.8,56l-1.1-0.2c-0.4,0-0.7,0-1.1-0.2c-0.4,0-0.7,0-1.1-0.2h-0.7
			h-0.7c-0.4,0-0.7,0-1.1,0H65h-0.9c-0.4,0-0.7,0-1.1,0h-0.7l0,0h-0.2H61c-0.2,0-0.4,0-0.7,0h-0.7h-0.7c-0.2,0-0.4,0-0.7,0h-1.1
			l1.1-0.2c0.2,0,0.4,0,0.7,0h0.7h0.7c0.2,0,0.4,0,0.7,0h1.1h0.2h0.2h0.7h0.7c0.2,0,0.4,0,0.7,0h1.1h1.1c0.4,0,0.9,0,1.1,0h0.7h0.7
			c0.4,0,0.9,0,1.1,0c0.4,0,0.7,0,1.1,0.2c0.4,0,0.7,0,1.1,0.2c0.4,0,0.7,0,1.1,0.2h0.7h0.7c0.4,0,0.7,0.2,1.1,0.2l-0.7,0.4v-1.8
			l0.4,0.4H74c-0.7,0-1.3-0.2-1.8-0.2l-2-0.2h-0.4c-0.2,0-0.2,0-0.4,0h-0.9h-0.9c-0.2,0-0.7,0-0.9,0h-2h-0.7c-0.2,0-0.2,0-0.4,0
			h-0.9c-0.7,0-1.3,0-2,0h-2h-2c-0.2,0-0.7,0-0.9,0h-0.9c-0.7,0-1.3,0-2,0.2c-0.7,0-1.3,0.2-2,0.2h-0.4h-0.4l-0.9,0.2
			c-0.2,0-0.7,0-0.9,0.2l-0.7-0.4h-0.4C47,54.7,46.3,54.7,45.9,55.1z"/>
		<path class="st2" d="M47.3,56.3c0,0,0,0.2,0.2,0.4c0,0.2,0.2,0.7,0.4,1.1c0.2,0.4,0.4,0.9,0.9,1.4c0.4,0.7,0.9,1.1,1.3,1.8
			c0.7,0.7,1.3,1.3,2,1.8c0.7,0.7,1.4,1.1,2.7,1.4c0.2,0,0.4,0.2,0.7,0.2c0.2,0,0.2,0,0.4,0.2c0.2,0,0.2,0,0.4,0.2
			c0.2,0,0.2,0,0.4,0.2c0.2,0,0.2,0,0.4,0h0.2h0.2c0.2,0,0.2,0,0.4,0c1.1,0.2,2.2,0.2,3.2,0.2c0.2,0,0.7,0,0.9,0h0.2l0,0l0,0h0.4
			c0.7,0,1.1,0,1.8-0.2c0.2,0,0.4,0,0.9-0.2c0.2,0,0.4,0,0.9-0.2c0.2,0,0.4,0,0.9-0.2c0.2,0,0.2,0,0.4,0c0.2,0,0.2,0,0.4,0
			c1.1-0.2,2-0.7,2.9-0.9c0.9-0.4,1.8-0.9,2.3-1.3c0.7-0.4,1.3-0.9,1.8-1.4c0.4-0.4,0.9-0.9,1.1-1.3c0.2-0.4,0.4-0.7,0.7-1.1
			c0.2-0.2,0.2-0.4,0.2-0.4s0,0.2,0,0.4c0,0.2-0.2,0.7-0.4,1.1c-0.2,0.4-0.4,1.1-0.9,1.4c0,0.2-0.2,0.2-0.4,0.4
			c-0.2,0.2-0.2,0.2-0.4,0.4c-0.2,0.2-0.7,0.7-0.9,0.9l-0.2,0.2L73.3,63l-0.2,0.2v0.5l-0.2,0.2l-0.2,0.2c-0.2,0.2-0.4,0.2-0.7,0.4
			c-0.9,0.4-2,0.9-2.9,1.1c-0.2,0-0.2,0-0.4,0.2c-0.2,0-0.2,0-0.4,0c-0.2,0-0.4,0.2-0.9,0.2c-0.2,0-0.7,0.2-0.9,0.2
			c-0.2,0-0.7,0-0.9,0.2c-0.7,0-1.1,0.2-1.8,0.2h-0.4l0,0l0,0l0,0l0,0h-0.2c-0.2,0-0.7,0-0.9,0c-1.1,0-2.3-0.2-3.4-0.4
			c-0.7-0.2-1.1-0.2-1.8-0.4c-0.2,0-0.2,0-0.4-0.2c-0.2,0-0.2,0-0.4-0.2c-0.2,0-0.2-0.2-0.4-0.2c-0.2,0-0.2,0-0.4-0.2
			c-1.1-0.4-2-1.1-2.7-1.8c-0.9-0.7-1.4-1.3-2-2c-0.4-0.7-0.9-1.3-1.3-2c-0.4-0.7-0.7-1.1-0.7-1.8c-0.2-0.4-0.2-0.9-0.4-1.1
			C47.3,56.5,47.3,56.3,47.3,56.3z"/>
		<path class="st2" d="M35.6,8.2c-0.4,0-0.5-0.2-0.7-0.2c-0.2-0.2-0.4-0.2-0.7-0.4c0,0-0.2,0-0.2-0.2c0,0,0,0-0.2-0.2
			c0,0,0-0.2-0.2-0.2l0,0l0,0V6.8c0,0,0,0,0-0.2c0,0,0,0,0-0.2V6.1c0,0,0-0.2,0.2-0.2c0,0,0,0,0.2,0l0,0l0,0l0,0l0,0
			c0.4,0,1.1,0,1.4,0c0.4,0,1.1,0,1.4,0c0.4,0,1.1,0,1.4,0h0.7h0.7H40v0.2c0,0.2,0,0.2,0.2,0.4c0,0.2,0,0.2,0,0.4V7
			c0,0,0,0.2-0.2,0.2l0,0l0,0l0,0l0,0l0,0l0,0l0,0c0,0,0,0-0.2,0c0,0,0,0-0.2,0h-0.2c-0.2,0-0.4,0-0.9,0c-0.2,0-0.4,0-0.7,0
			c-0.4,0-1.1,0-1.4-0.2c-0.2,0-0.4,0-0.7,0c-0.2,0-0.4,0-0.7,0c0.2,0,0.4,0,0.7,0c0.2,0,0.4,0,0.7,0c0.4,0,1.1,0,1.4,0h0.7
			c0.2,0,0.4,0,0.7,0c0.2,0,0.2,0,0.2,0l0,0l0,0l0,0l0,0l0,0l0,0l0,0l0,0l0,0l0,0V6.8l0.9-0.2h-0.7h-0.7c-0.4,0-1.1,0-1.4,0
			c-0.4,0-1.1,0-1.4,0s-1.1,0-1.4,0l0,0l0,0l0,0l0,0l0,0c0,0,0,0,0,0.2l0,0l0,0l0,0l0,0l0,0c0,0,0,0,0,0.2l0.2,0.2l0.2,0.2l0.2,0.2
			C35.1,8,35.3,8.2,35.6,8.2z"/>
		<path class="st2" d="M39.4,7.5C39.4,7.5,39.4,7.9,39.4,7.5c-0.2,0.2-0.2,0.2-0.2,0.2s0,0-0.2,0.2c0,0,0,0.2-0.2,0.2l0,0l0,0l0,0
			l0,0l0,0l0,0l0,0l0,0l0,0l0,0l0,0l0,0l0,0l0,0c0,0,0,0,0,0.2l0,0l0,0c0,0,0,0,0,0.2v0.2v0.2v0.2v0.2v0.7l0,0l0,0c0,0,0,0-0.2-0.2
			c0,0-0.2,0-0.2-0.2l-0.2-0.2c0,0,0-0.2-0.2-0.2V8.6c0,0,0,0,0-0.2c0,0,0,0,0-0.2l0,0l0,0l0,0l0,0l0,0l0,0l0,0V8V7.9V7.5
			c0,0,0,0,0.2-0.2c0,0,0,0,0.2-0.2c0,0,0,0,0.2,0c0,0,0,0,0.2,0c0,0,0,0,0.2,0h0.2C39.2,7.5,39.2,7.5,39.4,7.5
			C39.2,7.5,39.2,7.5,39.4,7.5L39.4,7.5z"/>
		<path class="st2" d="M36.7,5c0,0,0.7-9,8.1-11.5c7.6-2.7,11.4,0,14.8,2.2S65-2.9,65-2.9s-1.3,1.6-6.3-0.4s-9-4-14.1-1.4
			C40-2.4,38.9,5,38.9,5S36.7,5,36.7,5z"/>
		<path class="st2" d="M42.3,6.4c0-0.2-0.2-0.4-0.2-0.7c0-0.2-0.2-0.4-0.2-0.7c0-0.4-0.2-0.9-0.2-1.4c0-0.2,0-0.4,0-0.7
			c0-0.2,0-0.4,0-0.7c0-0.2,0-0.4,0.2-0.7c0-0.2,0-0.2,0-0.4c0-0.2,0-0.2,0.2-0.4c0-0.2,0.2-0.4,0.4-0.7l0,0l0,0l0,0l0.2-0.2
			l0.2-0.2L43-0.6L43.4-1l0.2-0.7c0.2-0.2,0.4-0.2,0.7-0.4l0.2-0.2l0.2-0.2c0.4-0.4,0.5-0.4,0.7-0.5c0.2,0,0.2,0,0.4-0.2
			c0.2,0,0.2,0,0.4-0.2h0.4l-0.2,0.4c0,0.2-0.2,0.4-0.2,0.7s0,0.4,0,0.5c-0.2,0.4-0.2,0.9-0.4,1.3c0,0.2-0.2,0.4-0.2,0.7
			c0,0.2,0,0.4-0.2,0.7v0.2v0.2c0,0.2,0,0.4,0,0.7v0.2v0.4c0,0.2,0,0.4,0,0.7c0,0.2,0,0.4,0.2,0.7l0,0l0,0l0,0l0,0l0,0v0.2l0.2,0.2
			l0.2,0.7v0.2c0,0.2,0.2,0.4,0.2,0.7l0.2,0.2c0,0,0,0.2,0.2,0.2l0.2,0.2l0,0l0,0l0,0l0,0l0,0l0,0V7c-0.2,0-0.4,0-0.7,0.2
			c-0.2,0-0.4,0-0.7,0c-0.2,0-0.4,0-0.7,0c-0.2,0-0.4,0-0.7-0.2c-0.2,0-0.2-0.2-0.2-0.2s0,0-0.2-0.2l0,0l0,0l0,0l0,0l0,0l0,0l0,0
			c0-0.2,0-0.2-0.2-0.4V5.9V5.5c0-0.2,0-0.4-0.2-0.7c0-0.2,0-0.4,0-0.7c0-0.2,0-0.4,0-0.7c0-0.2,0-0.4,0-0.7c0-0.2,0-0.4,0-0.7
			c0-0.2,0-0.4,0-0.7c0-0.2,0-0.4,0.2-0.7c0-0.2,0.2-0.4,0.2-0.7c0,0,0-0.2,0.2-0.2c0,0,0-0.2,0.2-0.2c0-0.2,0.2-0.4,0.4-0.7
			c0.2,0.9,0.2,1.1,0.2,1.3c0,0.2-0.2,0.4-0.2,0.7c0,0.2-0.2,0.4-0.2,0.7c0,0.2,0,0.4-0.2,0.7c0,0.2,0,0.4,0,0.7c0,0.2,0,0.4,0,0.7
			c0,0.2,0,0.4,0,0.7c0,0.2,0,0.4,0,0.7c0,0.2,0,0.4,0,0.7c0,0.2,0,0.4,0.2,0.7c0,0,0,0,0,0.2c0,0,0,0,0,0.2c0,0,0,0.2,0.2,0.2l0,0
			l0,0l0,0l0,0l0,0l0,0l0,0l0,0c0,0,0.2,0,0.2,0.2c0.2,0,0.4,0.2,0.7,0.2c0.2,0,0.4,0,0.7,0c0.2,0,0.4,0,0.7,0c0.2,0,0.4,0,0.7-0.2
			v0.4l0,0l0,0l0,0l0,0l0,0c0,0,0,0-0.2-0.2l-0.2-0.2L46.6,7l-0.5-0.7c-0.2-0.2-0.2-0.4-0.2-0.7l-0.2-0.2l-0.2-0.2L45.4,5V4.8l0,0
			l0,0l0,0l0,0c0-0.2-0.2-0.4-0.2-0.7c0-0.2,0-0.4,0-0.7c0-0.2,0-0.2,0-0.4c0-0.2,0-0.2,0-0.4c0-0.2,0-0.4,0-0.7c0-0.2,0-0.2,0-0.4
			c0-0.2,0-0.2,0-0.4c0-0.2,0-0.4,0.2-0.7c0-0.2,0.2-0.4,0.2-0.7c0.2-0.4,0.2-0.9,0.4-1.3c-0.2-0.4,0-0.7,0-0.9s0.2-0.5,0.2-0.7
			l0.2,0.4h-0.2c-0.2,0-0.2,0-0.2,0.2c-0.2,0-0.4,0.2-0.7,0.2L45-2.2L44.8-2c-0.2,0.2-0.4,0.2-0.7,0.4l-0.4,0.2L43.4-1l-0.2,0.2
			L43-0.6l-0.2,0.4l0,0l0,0v0.2c-0.4,0.4-0.4,0.7-0.5,0.9c0,0,0,0.2-0.2,0.2c0,0.2,0,0.2,0,0.4c0,0.2,0,0.4-0.2,0.7
			c0,0.2,0,0.4,0,0.7c0,0.2,0,0.4,0,0.7c0,0.2,0,0.4,0,0.7c0,0.2,0,0.4,0,0.7C41.9,5.3,42.1,6.1,42.3,6.4z"/>
		<path class="st2" d="M52-4.7c0,0,0,0.2,0.2,0.4c0.2,0.2,0.2,0.7,0.4,1.1c0,0.2,0.2,0.4,0.2,0.9v0.2c0,0,0,0,0,0.2c0,0,0,0,0,0.2
			c0,0,0,0,0,0.2c0,0,0,0,0,0.2c0,0,0,0,0,0.2c0,0,0,0,0,0.2C52.6-0.4,52,0.1,51.8,1c0,0.4-0.2,0.9-0.2,1.3v0.2c0,0.2,0,0.2,0,0.4
			c0,0.2,0,0.2,0,0.4v0.2v0.2c0,0.2,0,0.2,0,0.4c0,0.2,0,0.2,0.2,0.4v0.2l0,0l0,0l0,0l0,0l0,0l0,0l0,0l0,0v0.2
			C52,5,52.6,5.3,52.9,5.5c0.9,0.4,2,0.7,3.1,0.4c0.2,0,0.4-0.2,0.7-0.2h0.2h0.2l0.2-0.2l0.4,0.7l0.2-0.2L58,5.9
			c0-0.2,0-0.2,0.2-0.4V5.2V5V4.8V4.4V4.3l0,0l0,0V4.1V3.9c0-0.2,0-0.2,0-0.4V3.2V3c0-0.2-0.2-0.4-0.4-0.7l-0.2-0.2l-0.2-0.2
			c-0.2-0.2-0.4-0.2-0.7-0.4c-0.4-1.4-0.9-1.4-1.3-1.4c-0.2,0-0.4,0.2-0.7,0.2c-0.2,0.2-0.2,0.4-0.4,0.7c-0.2,0.2-0.2,0.4-0.2,0.7
			l0,0l0,0l0,0l0,0l0,0v0.2c0,0,0,0,0,0.2c0,0,0,0,0,0.2s0,0.4,0.2,0.7c0,0.2,0.2,0.4,0.4,0.4c0.2,0.2,0.7,0.4,1.1,0.4
			c0.4,0,0.9,0,1.1,0s0.2-0.2,0.4-0.2c0.2-0.2,0.2-0.2,0.2-0.4c0-0.2,0-0.7-0.2-0.9s-0.4-0.5-0.5-0.5s-0.4,0-0.7,0
			c-0.2,0-0.2,0.2-0.4,0.2l-0.2,0.2l0,0l0,0c0,0,0-0.2,0.2-0.2c0,0,0.2-0.2,0.4-0.2c0.2,0,0.4,0,0.7,0c0.2,0,0.4,0.2,0.7,0.4
			c0.2,0.2,0.2,0.7,0.2,0.9c0,0.2,0,0.4-0.2,0.7c-0.2,0.2-0.2,0.2-0.4,0.4c-0.2,0-0.4,0.2-0.7,0.2c-0.2,0-0.4,0-0.7,0
			c-0.4,0-0.9-0.2-1.3-0.7C54.2,3.4,54,3.2,54,2.8c0-0.2-0.2-0.4-0.2-0.9l0,0V1.7V1.4l0,0l0,0l0,0l0,0l0,0C53.8,1.2,54,1,54,0.7
			c0.2-0.4,0.4-0.7,0.7-0.9c0.2-0.2,0.4-0.2,0.9-0.4c0.7-0.2,1.1,0,1.8,0.2c0.7,0.2,1.1,0.7,1.3,1.1c0.2,0.2,0.4,0.4,0.4,0.7v0.2
			v0.2c0,0.2,0,0.2,0.2,0.4v0.5v0.2c0,0,0,0,0,0.2l0,0v0.2l0,0l0,0l0,0l0,0v0.2v0.2v0.2v0.2c0,0.2,0,0.2-0.2,0.4c0,0.2,0,0.4,0,0.4
			c0,0.2-0.2,0.2-0.2,0.4c-0.2,0-0.2,0.2-0.4,0.2c-0.2,0-0.2,0.2-0.4,0.2c0,0-0.2,0-0.2,0.2h-0.2c-0.5,0.7-1.1,0.7-1.3,0.7h-0.2
			h-0.2c-0.2,0-0.2,0-0.4,0c-0.2,0-0.7,0-0.9,0c-0.7,0-1.1-0.2-1.4-0.4c-0.2-0.2-0.4-0.2-0.7-0.4l-0.2-0.2c0,0,0-0.2-0.2-0.2
			c0,0,0,0-0.2-0.2l-0.5-0.5l0,0l0,0l0,0l0,0l0,0l0,0l0,0V4.3c0-0.2,0-0.2-0.2-0.4c0-0.2,0-0.2,0-0.4c-0.2-0.9-0.2-2,0-2.9
			c0.2-0.4,0.2-0.9,0.4-1.1c0.2-0.4,0.4-0.7,0.4-0.9c0,0,0,0,0-0.2l0,0l0,0c0,0,0,0,0-0.2c0,0,0,0,0-0.2c0,0,0,0,0-0.2v-0.4
			c0-0.2,0-0.7,0-0.9s0-0.7-0.2-0.9C52.2-4.4,52-4.7,52-4.7z"/>
		<path class="st2" d="M55.3,8.2c0,0,0,0.2,0,0.4s0,0.7,0,1.1s0,0.9,0,1.4c0,0.7,0,1.3-0.2,2c0,0.7-0.2,1.4-0.2,2.3
			s-0.2,1.8-0.2,2.7c0,0.4,0,0.9-0.2,1.3c0,0.4,0,0.9-0.2,1.4c0,0.9-0.2,2-0.4,2.9c-0.2,0.9-0.2,2-0.4,2.9c0,0.4-0.2,0.9-0.2,1.4
			c0,0.4-0.2,0.9-0.2,1.3c-0.2,0.9-0.2,1.8-0.4,2.7c0.2,1.1,0,1.8,0,2.7c-0.2,0.7-0.2,1.3-0.4,2c0,0.7-0.2,1.1-0.2,1.4
			c0,0.4-0.2,0.7-0.2,1.1c0,0.2,0,0.4,0,0.4s0-0.2,0-0.4c0-0.2,0-0.7,0-1.1c0-0.4,0-0.9,0-1.4c0-0.7,0-1.3,0.2-2
			c0-0.7,0.2-1.4,0.2-2.3s0.2-1.8,0.2-2.7c0-0.4,0-0.9,0.2-1.3c0-0.4,0-0.9,0.2-1.4c0-0.9,0.2-2,0.4-2.9c0.2-0.9,0.2-2,0.4-2.9
			c0-0.4,0.2-0.9,0.2-1.4c0-0.4,0.2-0.9,0.2-1.3c0.2-0.9,0.2-1.8,0.4-2.7c0.2-0.9,0.2-1.4,0.4-2.3c-0.2-1.1-0.2-1.8,0-2.2
			c0-0.7,0.2-1.1,0.2-1.4c0-0.4,0.2-0.7,0.2-1.1C55.3,8.4,55.3,8.2,55.3,8.2z"/>
		<path class="st2" d="M58,8.2c0,0,0,0.2,0,0.4s0,0.9,0,1.3c0,0.7,0,1.3,0.2,2.2c0,0.9,0,1.8,0.2,2.9c0,1.1,0,2.2,0.2,3.2
			c0,1.1,0,2.3,0.2,3.8c0,1.3,0,2.7,0.2,4c0,1.3,0,2.7,0,4c0,1.3,0,2.7,0,4s0,2.7,0,4c0,1.3,0,2.3,0,3.8c0,0.7,0,1.1,0,1.8
			c0,0.4,0,1.1,0,1.4c0,1.1,0,2,0,2.9s0,1.4,0,2.2c0,0.7,0,1.1,0,1.3c0,0.2,0,0.4,0,0.4s0-0.2,0-0.4c0-0.2,0-0.9,0-1.3
			c0-0.7,0-1.3-0.2-2.2c0-0.9,0-1.8-0.2-2.9c0-0.4,0-1.1,0-1.4c0-0.4,0-1.1,0-1.8c0-1.1,0-2.3-0.2-3.8c0-1.3,0-2.7-0.2-4
			c0-1.3,0-2.7,0-4c0-1.3,0-2.7,0-4c0-1.3,0-2.7,0-4s0-2.3,0-3.8c0-1.1,0-2.2,0-3.2s0-2,0-2.9s0-1.4,0-2.2c0-0.7,0-1.1,0-1.3
			C58,8.4,58,8.2,58,8.2z"/>
		<path class="st2" d="M58.9,7.5c0,0,0,0.2,0.2,0.4c0.2,0.2,0.2,0.9,0.7,1.3c0.2,0.7,0.4,1.3,0.9,2.2c0.4,0.9,0.7,1.8,1.1,2.9
			s0.9,2.2,1.3,3.2c0.4,1.1,0.9,2.3,1.3,3.8c0.2,0.7,0.4,1.3,0.7,2c0.2,0.7,0.4,1.3,0.7,2c0.4,1.3,1.1,2.9,1.4,4.1
			c0.4,1.3,0.9,2.9,1.4,4.1c0.2,0.4,0.2,0.7,0.4,1.1c0.2,0.4,0.2,0.7,0.4,1.1c0.2,0.7,0.4,1.3,0.7,2c0.4,1.3,0.9,2.7,1.3,3.8
			c0.2,0.7,0.4,1.1,0.7,1.8c0.2,0.7,0.4,1.1,0.4,1.8c0.4,1.1,0.7,2,0.9,2.9c0.2,0.9,0.4,1.4,0.7,2.2c0.2,0.7,0.4,1.1,0.4,1.4
			c0,0.4,0.2,0.4,0.2,0.4s0-0.2-0.2-0.4c-0.2-0.2-0.2-0.9-0.7-1.3c-0.2-0.7-0.4-1.3-0.9-2.2c-0.4-0.9-0.7-1.8-1.1-2.9
			c-0.2-0.4-0.4-1.1-0.7-1.4c-0.2-0.7-0.4-1.1-0.7-1.8c-0.4-1.1-0.9-2.3-1.3-3.8c-0.2-0.7-0.4-1.3-0.7-2c-0.2-0.4-0.2-0.7-0.4-1.1
			c-0.2-0.4-0.2-0.7-0.4-1.1c-0.4-1.3-1.1-2.9-1.4-4.1c-0.4-1.3-0.9-2.9-1.4-4.1c-0.2-0.7-0.4-1.3-0.7-2c-0.2-0.7-0.4-1.3-0.7-2
			c-0.4-1.3-0.9-2.7-1.3-3.8c-0.4-1.3-0.9-2.3-1.1-3.4s-0.4-2-0.5-2.9s-0.4-1.4-0.7-2.2c-0.2-0.7-0.4-1.1-0.4-1.4
			C59.2,7.9,58.9,7.5,58.9,7.5z"/>
		<path class="st2" d="M49.3,27.3c-0.9-1.4-1.8-2.3-1.4-3.1c0.2-0.7,0.9-4.1,0.9-4.1c4.9-2.7,4.9-7.9,4.9-7.9
			c-1.3,1.3-2.3,1.4-2.3,1.4c1.8-2.3,0.4-7.2,0.4-7.2c-0.9,3.2-3.2,5-3.2,5c0.2-1.1,0-2.9,0-2.9c-1.8,2.3-4.1,4-4.1,4
			c1.1-1.8,1.4-4.5,1.3-4l0,0c-0.4,0.7-2.2,2-3.1,2.3c-1.1,0.7-3.1,3.4-3.1,3.4l-0.5,0.4c-1.8,0.7-8.1,5.4-8.5,5.8
			c-0.4,0.2-0.7,0.2,0-0.7c0.7-0.9,5-4.1,5-4.1c-3.1,0.2-5.2,2.7-5.2,2.7C29.9,18.5,30,18,30,18c0.2-1.3,3.8-2.9,3.8-2.9
			c-2.2-0.2-3.8,1.4-3.8,1.4c0-0.7-0.4-0.9-0.7-0.9l0,0l0,0l0,0l0,0c0,0-0.4,0.2-0.4,0.9c0,0-1.4-1.8-3.8-1.4c0,0,3.4,1.4,3.8,2.9
			c0,0,0.2,0.7-0.2,0.4c0,0-2.3-2.3-5.2-2.7c0,0,4.3,3.2,5,4.1c0.7,0.9,0.4,1.1,0,0.7c-0.4-0.2-6.8-5.2-8.5-5.8l-0.4-0.2
			c0,0-2-2.9-3.1-3.4c-1.4-0.7-3.2-1.8-3.8-2.3l0,0c-0.4-0.4,0,2.2,1.3,4c0,0-2.3-1.4-4.1-4c0,0-0.2,1.8,0,2.9c0,0-2.3-1.8-3.2-5
			c0,0-1.3,4.9,0.7,7.2c0,0-1.3-0.2-2.3-1.4c0,0,0,5.2,4.9,7.9c0,0,0.7,3.2,0.9,4.1c0.2,0.7-0.7,1.3-1.4,3.1
			C8.6,29,7.2,34.7,9.1,37.8c0,0,0,0.4-0.9,0c0,0,0.2,0.9,1.3,1.3c1.1,0.4,1.4,0.7,1.8,1.4c0,0.9,0,2,0,2s-0.9-1.1-1.1-1.1
			C10,41.4,9,42.8,9,44.1s0.4,5.2,0.4,5.2s0.4-4.1,0.7-4.9s0.7-0.4,0.7,0.4c-0.7,0.7-2,7.4,0.2,9.2l0.2-11.5c0,0,0-1.8,1.1-2
			c0.9-0.2,0.9,2,1.1,3.1c0,1.1,1.1,5.8,1.8,7c0,0-2.2-3.4-2.9-6.1c0,0-1.8,9.4,4.3,13c0,0-1.3-2.7-1.3-4c0,0,1.3,1.4,2.2,1.8
			c0,0-1.3-3.1-1.3-4.1c0,0,1.4,2.9,2.7,3.8c0,0-2.2-7.4,0.4-11c0,0,0.2,1.8,0.2,3.1c-0.2,1.3-1.1,4.1,0,7c1.3,2.9,3.8,5.2,3.8,5.2
			s-1.8-2.9-0.9-4.5c0,0,1.8,6.1,6.5,8.3l0,0l0,0l0,0l0,0c5-2.2,6.8-8.3,6.8-8.3c0.7,1.8-0.9,4.1-0.9,4.1s2.7-2.3,3.8-5.2
			c1.3-2.9,0.2-5.8,0-7s0.2-3.1,0.2-3.1c2.7,3.4,0.4,11,0.4,11c1.1-0.9,2.7-3.8,2.7-3.8c0,1.1-1.3,4.1-1.3,4.1
			c0.9,0,2.2-1.8,2.2-1.8c0,1.3-1.3,4-1.3,4c6.1-3.4,4.3-13,4.3-13c-0.4,2.7-2.9,6.1-2.9,6.1c0.7-1.3,1.4-5.9,1.8-7
			c0-1.1,0-3.2,1.1-3.1c1.1,0.4,1.1,2,1.1,2L47,53.6c2-1.8,0.9-8.5,0.9-9.6c0-0.9,0.2-1.1,0.7-0.4c0.4,0.7,0.7,4.9,0.7,4.9
			s0.4-4,0.4-5.2s-0.4-2.9-0.7-2.9c-0.2,0-1.1,1.1-1.1,1.1s-0.2-1.1,0-2c0-0.9,0.7-1.3,1.8-1.4c1.1-0.4,1.3-1.3,1.3-1.3
			c-0.9,0.4-0.9,0-0.9,0C51.7,34.2,50.2,28.8,49.3,27.3z M52.2,14.5c0,0-1.4,4.5-7.4,6.1l1.4-1.3l-2,0.4
			C44.3,20.1,51.1,16.2,52.2,14.5z M51.1,9.5c0,0-0.7,5-4.3,5.8c0,0,1.1-1.3,1.3-2.3C48.1,12.6,50.6,10.2,51.1,9.5z M43.6,10.9
			c0,0-3.1,3.8-3.8,5.8c0,0,2-3.1,3.2-3.8c0,0-0.4,0.9-0.2,1.8c0,0,2.3-1.4,3.2-2.9c0,0-1.4,2.7-3.2,3.8c0,0,2.7-1.3,3.8-2.7
			c0.2-0.4,0.4-0.7,0.4-0.7c0,0.2-0.2,0.4-0.4,0.7c-0.7,0.9-2.2,2.9-4,4c0,0-0.9,0.7-1.4,2.3c-0.7,1.4-0.7,2.3-0.7,2.3
			s-0.2-2,0.7-3.4c0,0-1.3,1.4-2,3.4c-0.7,2-1.4,3.1-2.2,3.2c0,0,1.1-1.3,0.7-2.9c0,0-1.1,0.9-1.8,1.4c0,0,0.9-2,1.8-3.4
			c0,0-1.4,1.4-2.2,2.2c0,0,1.1-2.3,1.8-3.4c0,0-1.3,0.9-1.8,1.3c0,0,2.2-2.9,2.9-3.8C38.3,16.5,40.9,12.4,43.6,10.9z M43.6,33.5
			c-0.7,2.2-2.3,2.7-2.3,2.7l0.9,0.4c-1.3,0.7-2.3,0.2-2.3,0.2l0.7,0.9c-2-0.2-2.9-1.1-2.9-1.1v0.7c-2-0.4-3.4-2.7-3.4-2.7
			s1.4,1.8,4.3,0.7c3.1-1.1,2.3-5.8,2.3-5.8c0.9,0,2-2.2,2-2.2c0.7,1.1,0.4,2.7,0.4,2.7l0.7-0.4c0.4,2.3-0.9,4-0.9,4L43.6,33.5z
			 M38.3,32.2c0.7-1.4-0.4-2.3-0.4-2.3c0.4-0.2,1.4-0.4,1.4-0.4c1.3,3.2-0.7,5-2.7,5c-2,0-3.1-1.8-3.1-1.8c0.2-0.4,0.7-0.9,0.7-0.9
			s0.7,0.9,1.3,1.1C36.7,33.6,38,33.8,38.3,32.2z M38,16.5c0,0-4.1,2.2-5,3.4C32.9,20.1,33.3,18.1,38,16.5z M34.7,20.5
			c0,0-1.3,0.9-1.8,1.3C32.9,21.7,32.9,20.7,34.7,20.5z M35.1,25c-0.2,0.7-2,1.4-2,1.4C33.6,25.3,35.1,25,35.1,25z M32.9,23.7
			c0.7-0.7,1.8-1.1,1.8-1.1l-2.3,2.2C32.2,25,32.2,24.4,32.9,23.7z M32,27.9l-2.2,1.8C30.6,28.1,32,27.9,32,27.9z M29.7,32.7
			c1.3-0.7,3.2-2.3,3.2-2.3v0.9C36,30,41,24.1,41,24.1c-2,5.6-11.4,11-11.4,11V32.7z M27.9,32.7v2.3c0,0-9.6-5.4-11.4-11.2
			c0,0,5,5.9,8.1,7.2v-0.9C24.6,30,26.6,32,27.9,32.7z M17.4,37.6l0.9-0.7c0,0-1.3,0.7-2.3-0.2l0.9-0.4c0,0-2-0.4-2.3-2.7h0.7
			c0,0-1.3-1.4-0.9-4l0.7,0.4c0,0-0.2-1.4,0.4-2.7c0,0,1.1,2.2,2,2.2c0,0-0.7,4.3,2.3,5.8c3.1,1.1,4.3-0.7,4.3-0.7s-1.8,2.2-3.4,2.7
			v-0.7C20.3,36.3,19.4,37.2,17.4,37.6z M20.8,34.7c-2,0-4-1.8-2.7-5c0,0,1.1,0,1.4,0.4c0,0-0.9,0.9-0.4,2.3
			c0.7,1.4,1.8,1.3,2.3,1.1c0.7-0.2,1.3-1.1,1.3-1.1s0.7,0.4,0.7,0.9C23.7,32.9,22.8,34.7,20.8,34.7z M22.7,25c0,0,1.4,0.2,2,1.4
			C24.6,26.4,22.8,25.7,22.7,25z M27.7,29.7l-2.2-1.8C25.7,27.9,27.2,28.1,27.7,29.7z M23,22.8c0,0,1.3,0.4,1.8,1.1
			c0.7,0.7,0.7,1.1,0.7,1.1L23,22.8z M24.8,21.7c-0.4-0.4-1.8-1.3-1.8-1.3C24.8,20.7,24.8,21.7,24.8,21.7z M24.8,20.1
			c-0.9-1.1-5-3.4-5-3.4C24.5,18.1,24.8,20.1,24.8,20.1z M11.1,13.3c1.1,1.3,3.8,2.7,3.8,2.7c-1.8-1.3-3.1-4-3.1-4
			c0.7,1.1,3.2,2.9,3.2,2.9c0-1.1-0.4-1.8-0.4-1.8c1.3,0.7,3.2,3.8,3.2,3.8c-0.4-2-3.8-5.9-3.8-5.9c2.9,1.4,5.2,5.8,5.2,5.8
			c0.7,0.9,2.9,3.8,2.9,3.8c-0.4-0.2-1.8-1.3-1.8-1.3c0.7,0.9,1.8,3.4,1.8,3.4c-0.7-0.7-2.2-2.2-2.2-2.2c0.9,1.4,1.8,3.4,1.8,3.4
			c-0.7-0.7-1.8-1.4-1.8-1.4c-0.4,1.4,0.7,2.9,0.7,2.9c-0.7-0.2-1.4-1.1-2.2-3.2c-0.7-2-2-3.4-2-3.4c1.1,1.4,0.9,3.4,0.9,3.4
			s0-0.7-0.7-2.3c-0.7-2-1.6-2.7-1.6-2.7C13.5,15.8,11.7,14.2,11.1,13.3c-0.2-0.2-0.2-0.4-0.4-0.7C10.6,12.6,10.9,12.9,11.1,13.3z
			 M6.6,9.5c0.4,0.9,3.1,3.2,3.1,3.2c0.4,1.3,1.4,2.5,1.4,2.5C7.3,14.4,6.6,9.5,6.6,9.5z M5.5,14.5c1.1,1.8,7.9,5.4,7.9,5.4l-2-0.4
			l1.6,1.1C7.2,19.2,5.5,14.5,5.5,14.5z M21.4,50.2c-0.7-0.7-0.2-1.8-0.2-1.8l2,2.3C22.8,50.9,21.9,51.1,21.4,50.2z M22.5,47.2
			c-0.7-0.7-0.2-1.8-0.2-1.8l2,2.3C23.9,47.9,23,48.1,22.5,47.2z M23.7,39.9c-0.4,0.9-2.2,1.4-2.2,1.4c0.2-0.2,0.9-1.8,0.9-1.8
			c-1.1,1.1-3.2,0.7-3.2,0.7l0.9,0.9c-2.2,0-4.5-1.4-4.5-1.4l0.2,0.9c-2.2-0.7-3.4-3.4-3.4-3.4v1.1c-1.3-1.3-1.4-3.8-1.4-3.8
			l-0.4,1.3c-0.7-1.8-0.2-3.4-0.2-3.4L10,32.6c-0.2-2,1.1-4.1,1.1-4.1l-0.9,0.4c0-0.9,1.1-2.3,1.1-2.3h-0.9c0-0.9,1.1-2,1.1-2
			c-1.8-1.8-1.1-4-1.1-4c0.2,2.7,3.4,4.3,3.4,4.3c-0.4,0.4-1.3,1.4-1.3,1.4c0.4,0,1.3-0.4,1.3-0.4c-0.7,0.7-1.3,2-1.3,2l0.9-0.2
			c-0.7,0.4-1.3,2-1.3,2l0.9-0.4c0,0-1.8,2.3,0,5.9c1.8,3.6,5.4,3.1,5.4,3.1l-0.2,0.4c0.9-0.2,2-1.1,2-1.1l-0.5,1.1
			c1.1-0.4,2.2-1.4,2.2-1.4l-0.2,1.1c0.9-0.9,4-3.2,4-3.2l-0.2,1.8c0.7-0.9,1.8-1.3,1.8-1.3s-0.4,0.7-1.3,2.7c-0.9,2,0.2,5,0.2,5
			C24.5,42.3,23.7,39.9,23.7,39.9z M25.7,53.3c-0.7-0.7-0.2-1.8-0.2-1.8l2,2.3C27.2,54,26.4,54.2,25.7,53.3z M26.1,49.7
			c-0.7-0.7-0.2-1.8-0.2-1.8l2,2.3C27.7,50.2,26.8,50.4,26.1,49.7z M29.7,41.9c0,1.3-0.7,3.1-0.9,3.4c-0.2-0.4-0.7-2.2-0.9-3.4
			c0-1.4-0.4-2.3,0-2.9c0.4-0.2,0.7,0,0.7,0l0.2-5.9L29,39c0,0,0.2-0.2,0.7,0C30.2,39.2,29.9,40.3,29.7,41.9z M30,50.2l2-2.3
			c0,0,0.4,0.9-0.2,1.8C30.9,50.4,30,50.2,30,50.2z M32,53.3C31.3,54,30.6,54,30.6,54l2-2.3C32.6,51.7,32.7,52.6,32,53.3z
			 M33.8,47.9l2-2.3c0,0,0.4,0.9-0.2,1.8C34.7,48.1,33.8,47.9,33.8,47.9z M36.3,50.2c-0.7,0.7-1.4,0.7-1.4,0.7l2-2.3
			C36.9,48.6,37.1,49.5,36.3,50.2z M48.2,32.2L47.9,32c0,0,0.4,1.8-0.2,3.4l-0.4-1.3c0,0-0.2,2.3-1.8,3.8v-0.9c0,0-1.3,2.9-3.1,3.4
			l0.2-0.9c0,0-2.3,1.4-4.5,1.4l0.9-0.9c0,0-2.2,0.7-3.2-0.7c0,0,0.7,1.4,0.9,1.8c0,0-1.8-0.7-2.2-1.4c0,0-0.9,2.3-2.7,3.2
			c0,0,1.3-3.1,0.2-5c-0.9-2-1.3-2.7-1.3-2.7s1.1,0.4,1.8,1.3l-0.2-2c0,0,3.1,2.7,4,3.2L36,36.7c0,0,1.1,1.1,2.2,1.4l-0.4-1.1
			c0,0,1.1,0.9,2,1.1l-0.2-0.4c0,0,3.8,0.7,5.4-3.1c1.8-3.4,0-5.9,0-5.9l0.9,0.7c0,0-0.7-1.4-1.3-2l0.9,0.2c0,0-0.4-1.3-1.3-2
			c0,0,0.9,0.4,1.3,0.4c0,0-0.9-1.1-1.3-1.4c0,0,3.2-1.8,3.4-4.3c0,0,0.7,2.2-1.1,4c0,0,1.1,1.1,1.1,2h-0.4c0,0,1.1,1.4,1.1,2.3
			l-0.7-0.7C47.2,28.4,48.4,30.6,48.2,32.2z"/>
	</g>
</g>
</svg>
