<svg xmlns="http://www.w3.org/2000/svg" viewBox="0 0 150 150"><defs><style>.a{fill:#fff;}</style></defs><path class="a" d="M66.83,0c31.94.34,58,21.56,64.33,51.93a98.83,98.83,0,0,1,1.27,9.9,2.56,2.56,0,0,1-2.3,3.12c-1.52.12-2.54-.92-2.66-2.77-1.11-17.28-8-31.83-21.24-43A60,60,0,1,0,48.08,121.74a58.83,58.83,0,0,0,33.68,1.51l1.07-.24c1.66-.36,2.93.29,3.32,1.72s-.44,2.65-2.11,3.09c-12.47,3.25-24.91,3.07-37.05-1.26C23.1,118,8.48,101.14,3.6,76.29-2.39,45.85,16,14.28,45.29,4A67.74,67.74,0,0,1,66.83,0Z"/><path class="a" d="M75,35h7c3.4,0,5.45,2,5.48,5.43,0,1.46,0,2.92,0,4.37A5,5,0,0,1,82.28,50c-6.1,0-12.19,0-18.29,0a3.72,3.72,0,0,0-3.56,5.38,3.88,3.88,0,0,0,3.71,2.12,85,85,0,0,1,10,.3,18.64,18.64,0,0,1,2.62,36.29c-1.46.42-1.89,1.05-1.75,2.45A26.32,26.32,0,0,1,75,100a5,5,0,0,1-5,5c-1.72.05-3.44.06-5.16,0A5,5,0,0,1,60,100C60,98.43,60,96.82,60,95H53.46c-4.05,0-5.94-1.88-6-5.9,0-1.3,0-2.6,0-3.91A5,5,0,0,1,52.76,80C58.85,80,65,80,71,80a3.72,3.72,0,0,0,3.56-5.38,3.85,3.85,0,0,0-3.72-2.11,82.35,82.35,0,0,1-9.82-.29A18.5,18.5,0,0,1,45.05,55,18.72,18.72,0,0,1,58.73,35.7c1-.28,1.37-.64,1.31-1.67-.09-1.34,0-2.7,0-4.06a5,5,0,0,1,5-5c1.71,0,3.43,0,5.15,0A5,5,0,0,1,75,29.89C75.06,31.5,75,33.11,75,35Zm-5.2,65c.11-.19.16-.23.16-.27,0-2.29,0-4.58,0-6.87a2.54,2.54,0,0,1,2.43-2.87l1.23-.21A13.7,13.7,0,0,0,85,76.32,13.45,13.45,0,0,0,73.73,62.78a71.49,71.49,0,0,0-9.5-.31C58.94,62.41,55,58.7,55,53.71S59,45,64.24,45c5.52,0,11,0,16.56,0h1.64V40H75.37C70.09,40,70,39.89,70,34.69V30.08H65.1a2.92,2.92,0,0,0-.07.42c0,1.83,0,3.65,0,5.47,0,3.32-.29,3.67-3.59,4.24A13.69,13.69,0,0,0,50,53.69,13.44,13.44,0,0,0,61.38,67.16a71.49,71.49,0,0,0,9.5.3c5.19.06,9.1,3.76,9.13,8.68S76.13,85,70.87,85c-5.52,0-11,0-16.57,0H52.62v5h6.81C65,90,65,90,65,95.48v4.45Z"/><path class="a" d="M67.4,117.49A52.52,52.52,0,0,1,58.77,13.16c28.11-4.89,55.57,14.5,60.34,42.61.35,2,.55,4.13.74,6.2a2.49,2.49,0,0,1-2.22,3,2.42,2.42,0,0,1-2.7-2.56,45.83,45.83,0,0,0-6.17-20.91C98.79,25,84.05,16.74,64.8,17.6c-22,1-40.09,17.27-44.09,39-4.65,25.23,12.35,50.14,37.5,54.94a47.11,47.11,0,0,0,34.33-6.24c.31-.18.61-.39.93-.57a2.56,2.56,0,0,1,3.69.72,2.38,2.38,0,0,1-1,3.47,122.42,122.42,0,0,1-11.45,5.61A46.79,46.79,0,0,1,67.4,117.49Z"/><path class="a" d="M102.52,115V73.35c0-2.57.8-3.38,3.33-3.38q11.64,0,23.28,0c2.63,0,3.4.79,3.4,3.47V115h12.26a2.53,2.53,0,0,1,1.91,4.37c-2.17,2.39-4.35,4.76-6.53,7.14l-20.16,22c-1.84,2-3.1,2-4.92,0L88.7,119.74c-.85-.92-1.54-1.87-1-3.2S89.49,115,90.82,115C94.66,115,98.51,115,102.52,115Zm5-39.93v41.33c0,2.87-.72,3.6-3.58,3.6H95.71c7.43,8.1,14.59,15.9,21.82,23.8L139.34,120H131c-2.75,0-3.5-.75-3.5-3.53V75Z"/></svg>