<?xml version="1.0" encoding="utf-8"?>
<!-- Generator: Adobe Illustrator 24.3.0, SVG Export Plug-In . SVG Version: 6.00 Build 0)  -->
<svg version="1.1" id="Layer_1" xmlns="http://www.w3.org/2000/svg" xmlns:xlink="http://www.w3.org/1999/xlink" x="0px" y="0px"
	 viewBox="0 0 2311.1 963" style="enable-background:new 0 0 2311.1 963;" xml:space="preserve">
<style type="text/css">
	.st0{fill:url(#SVGID_1_);}
	.st1{fill:url(#SVGID_2_);}
	.st2{fill:url(#SVGID_3_);}
	.st3{fill:url(#SVGID_4_);}
	.st4{fill:url(#SVGID_5_);}
	.st5{fill:#D1D1D1;}
	.st6{fill:url(#SVGID_6_);}
	.st7{fill:url(#SVGID_7_);}
	.st8{fill:url(#SVGID_8_);}
	.st9{fill:url(#SVGID_9_);}
	.st10{fill:url(#SVGID_10_);}
	.st11{fill:url(#SVGID_11_);}
	.st12{fill:url(#SVGID_12_);}
	.st13{fill:#D9DEDF;}
	.st14{fill:#C1C7C9;}
</style>
<g>
	<linearGradient id="SVGID_1_" gradientUnits="userSpaceOnUse" x1="757.298" y1="1094.2075" x2="1811.5327" y2="-445.5325">
		<stop  offset="0" style="stop-color:#FFFFFF"/>
		<stop  offset="1" style="stop-color:#AAB2B5"/>
	</linearGradient>
	<path class="st0" d="M1372.1,614.4c-32,0-67.1-1.3-84-2c-4.3-0.2-8-0.3-8.7-0.3c-0.9,0-6.4,0.2-12.2,0.5c-17,0.7-45.4,1.8-61.6,1.8
		c-6,0-10.1-0.7-13.4-2.3c-5.5-2.6-8.6-7.6-8.6-13.7c0-7.2,5.5-14.5,16-14.5c5,0,12.7-1,20.5-2.8l0.2,0c7.2-1.4,10.8-9.8,14-32.9
		c3.8-32.1,3.8-95.3,3.8-162.2V253.3c0-117.5-0.1-138.2-1.6-162.1c-1.6-27.1-10.1-31.3-18-33.1l-0.2,0L1218,58
		c-6.7-1.8-15.4-2.7-20.7-2.7c-9.1,0-16-6.2-16-14.5c0-6.1,3.1-11.1,8.6-13.7c3.3-1.6,7.5-2.3,13.4-2.3c18.1,0,48.3,1.2,64.5,1.8
		c5.5,0.2,10.7,0.4,11.6,0.4c0.9,0,6.4-0.2,12.2-0.5c17-0.7,45.3-1.8,61.6-1.8c6,0,10.1,0.7,13.4,2.3c5.5,2.6,8.6,7.6,8.6,13.7
		c0,8.3-6.9,14.5-16,14.5c-4.4,0-8.4,0.7-17.1,2.1c-15.4,2.9-18.4,12.3-19.6,33.7c-1.5,23.6-1.5,43.9-1.5,162.2v132.6
		c0,70.3,0,131,3.7,162.3l0,0.2c2.4,23.4,7.1,30.7,20.8,32.6c10.4,1.5,26.5,2.9,32.6,2.9c8,0,16,5,16,14.5
		C1394.2,602.2,1392.6,614.4,1372.1,614.4z"/>
	<linearGradient id="SVGID_2_" gradientUnits="userSpaceOnUse" x1="46.0313" y1="607.2139" x2="1100.2653" y2="-932.5251">
		<stop  offset="0" style="stop-color:#FFFFFF"/>
		<stop  offset="1" style="stop-color:#AAB2B5"/>
	</linearGradient>
	<path class="st1" d="M156.2,614.4c-19.3,0-41.9-1-56.9-1.7c-6.2-0.3-11.5-0.5-13.2-0.5c-2.2,0-8.9,0.3-16.6,0.7
		c-14.2,0.7-33.6,1.6-46.7,1.6C2.2,614.4,0,602.7,0,597.7c0-8,7.4-13.8,17.5-13.8c5.8,0,10.3,0,20.6-2.1l0.2,0
		c15.6-2.8,18.6-21.2,21.7-51l0.3-2.8l54.2-491.2c1.5-16.6,10.4-22.6,18.2-22.6c12.5,0,17.8,11.4,20.4,17l221.4,455.1l181.4-383.9
		l10.7,33.8c1,1.9,2,4.1,2.9,6.8l11.2,31.7L394.3,567.2c-1.9,4-3.6,7.6-5.2,10.9c-5.8,12.3-9.4,19.8-12.5,24.6
		c-2.8,4.4-7.6,10.1-16.3,10.1c-8.9,0-13.8-7.4-16.2-11c-3.4-5.2-7.4-12.8-14.1-25.5l-1.9-3.6c-8-15.2-29.4-56.9-85.3-169.3
		c-1.5-3.1-2.5-5.1-2.9-5.9c-5.6-11.3-60.1-127-86.4-185.3l-27.2,316.4c-0.7,11.7-0.7,25.7-0.7,38.1c0,6.5,4.9,12.2,11.6,13.6
		l0.3,0.1c11.8,2.8,22.4,3.5,26.3,3.5c9,0,16,6,16,13.8c0,6.5-3.4,11.8-9.2,14.5C167,613.7,162.7,614.4,156.2,614.4z"/>
	<linearGradient id="SVGID_3_" gradientUnits="userSpaceOnUse" x1="177.6314" y1="697.3174" x2="1231.8678" y2="-842.4252">
		<stop  offset="0" style="stop-color:#FFFFFF"/>
		<stop  offset="1" style="stop-color:#AAB2B5"/>
	</linearGradient>
	<path class="st2" d="M550.6,149.5c-0.8-2.5-1.4-3.6-1.6-3.9l-0.7-1.1l-4.9-15.5l61-129l8.4,21.8c3.6,9.4,9.4,24.3,16.6,43.3l1.5,4
		l-62.4,131.4L550.6,149.5z"/>
	<linearGradient id="SVGID_4_" gradientUnits="userSpaceOnUse" x1="419.9133" y1="863.2036" x2="1474.1494" y2="-676.5385">
		<stop  offset="0" style="stop-color:#FFFFFF"/>
		<stop  offset="1" style="stop-color:#AAB2B5"/>
	</linearGradient>
	<path class="st3" d="M902.9,614.4c-42.8,0-84.7-0.5-118.1-1.5l-3.8-0.2c-6.5-0.3-11.6-0.6-15.6-1.4c-3-0.6-12.9-3.5-12.9-13.7
		c0-2.6,0.9-11.2,11.4-14.5c0.3-0.9,0.6-3.3-1-7.5l-70.1-185.3l-13.6-37.1l-77.6-208.4l46.3-96.9l8.3,21.7
		c40.3,105.3,136.7,351.7,169,432.4c27.9,69.1,49.2,75.2,58.3,77.7l0.2,0.1l0.2,0.1c9.9,3.3,20.1,4,27,4c16.3,0,17.5,11.1,17.5,14.5
		c0,6.5-4.2,11.8-11.2,14.2c-3.6,1.3-8.2,1.9-13.9,1.9H902.9z"/>
	<linearGradient id="SVGID_5_" gradientUnits="userSpaceOnUse" x1="474.1622" y1="900.3512" x2="1528.3982" y2="-639.3909">
		<stop  offset="0" style="stop-color:#FFFFFF"/>
		<stop  offset="1" style="stop-color:#AAB2B5"/>
	</linearGradient>
	<path class="st4" d="M1029.2,572.6c36.3-30.3,61.6-69.2,75.3-115.6c11.4-38.6,11.7-72.7,10.9-89.6l0-0.7l0.1-0.7
		c0.9-10.2,1.4-20.5,1.4-30.5c0-41.2-8-79.8-23.7-114.6c-11.4-25.3-27.3-48.9-45.9-68.4c-64.7-68.1-142.4-82-239.1-82
		c-16.6,0-40.3,2.5-44.6,4.3l-0.1,0.1l-0.2,0.1c-2.8,1.2-3.1,1.4-3.1,5.9l0,0.3c-0.6,19.6-0.7,69.8-0.7,105.9l-19.3,3.7l-65-165.1
		l15.2,0.5c6.8,0.2,12.9,0.5,17.6,0.7c4.6,0.2,9,0.3,9.8,0.3c2.6,0,9.3-0.2,17.8-0.5c19.6-0.7,52.4-1.8,83.8-1.8
		c4.6,0,9.3,0,14.3-0.1c5.5,0,11.2-0.1,17.1-0.1c40.9,0,89.1,1.5,137.4,13c57.5,13.6,104.8,39.2,140.5,76.1
		c34.6,36,75.9,99.6,75.9,198.3c0,45.3-8.6,88.7-25.7,129.1c-14.3,33.8-34.5,65-58.5,90.3c-22.8,23.8-49.9,43.3-80.7,57.8
		L1029.2,572.6z"/>
	
		<rect x="551.7" y="387.4" transform="matrix(0.7071 -0.7071 0.7071 0.7071 -126.7582 538.3408)" class="st5" width="69.6" height="69.6"/>
	<linearGradient id="SVGID_6_" gradientUnits="userSpaceOnUse" x1="1040.0432" y1="1287.7961" x2="2094.2793" y2="-251.9458">
		<stop  offset="0" style="stop-color:#FFFFFF"/>
		<stop  offset="1" style="stop-color:#AAB2B5"/>
	</linearGradient>
	<path class="st6" d="M1579.9,614.4c-11,0-27.1-0.8-40-1.5c-8.4-0.4-15.7-0.8-18.8-0.8c-2.5,0-8.9,0.2-16.9,0.6
		c-17.6,0.7-44.1,1.7-68.2,1.7c-6.5,0-11-0.6-14.5-2c-6.1-2.4-9.8-7.7-9.8-14c0-8.4,7.1-14.5,16.8-14.5c4.7,0,14.8-0.7,20.6-1.4
		c28.1-3.7,41.5-26.3,55.1-64.3l143.8-393.5l1.1-3.1l26.1-71.4c8.8-24.3,13.6-36,26-36c12.4,0,17.4,11.5,25.9,33.5
		c3.2,8.2,15.2,39.5,31.8,82.8c26.4,69.1,66.4,173.5,99.5,258.8l5.7,14.7l-6,4.6c-4.9,3.7-9.3,4.5-12.5,5.1
		c-1.8,0.3-3.1,0.6-4.8,1.3c-3.9,1.8-8.4,3.3-12.8,4.8c-5.6,1.9-11.3,3.9-15.2,6.1c-4.3,2.4-8.6,3-11.6,3.4c-0.3,0-0.7,0.1-1,0.1
		l-9.6,14.6l-20.3-53.6l-14.1-37.4l-67.2-192.2l-3.8,11.7l-0.9,3l-57.8,177.6l-13.6,38.7l-45.3,133.4c-6.3,17.6-10,34.8-10,47.4
		c0,8.5,11.1,12.4,18.6,12.4h7.5c15.8,0,17.5,9.8,17.5,14c0,6.2-3.5,11.3-9.3,13.7C1588.8,613.9,1585.2,614.4,1579.9,614.4z"/>
	<path class="st5" d="M560.1,146.3c-0.9-2.6-1.8-4.6-2.6-6C558.3,141.7,559.2,143.7,560.1,146.3l9.8,27.9l0,0L560.1,146.3z"/>
	<g>
		<linearGradient id="SVGID_7_" gradientUnits="userSpaceOnUse" x1="1191.292" y1="319.6238" x2="1384.1816" y2="319.6238">
			<stop  offset="0" style="stop-color:#FFFFFF"/>
			<stop  offset="1" style="stop-color:#AAB2B5"/>
		</linearGradient>
		<path class="st7" d="M1378.2,593.9c-6.8,0-23.4-1.5-33.9-3c-22.6-3-27.2-19.6-29.4-41.4c-3.8-31.6-3.8-91.2-3.8-163.5V253.3
			c0-117.5,0-138.6,1.5-162.7c1.5-26.4,7.5-39.2,27.9-42.9c9-1.5,13.6-2.3,18.8-2.3c3,0,6-1.5,6-4.5c0-4.5-3.8-6-12.1-6
			c-22.6,0-70.1,2.3-73.8,2.3c-3.8,0-51.2-2.3-76.1-2.3c-8.3,0-12.1,1.5-12.1,6c0,3,3,4.5,6,4.5c5.3,0,15.1,0.8,23.4,3
			c16.6,3.8,24.2,16.6,25.7,42.2c1.5,24.1,1.6,45.2,1.6,162.7v132.6c0,72.3-0.1,131.9-3.9,163.5c-3,21.9-6.8,38.4-21.9,41.4
			c-6.8,1.5-15.9,3-22.6,3c-4.5,0-6,2.3-6,4.5c0,4.5,3.8,6,12,6c22.6,0,70.1-2.3,73.8-2.3c3.8,0,51.2,2.3,92.7,2.3
			c8.3,0,12.1-2.3,12.1-6C1384.2,596.1,1382.7,593.9,1378.2,593.9z"/>
		<linearGradient id="SVGID_8_" gradientUnits="userSpaceOnUse" x1="10" y1="314.3499" x2="620.0381" y2="314.3499">
			<stop  offset="0" style="stop-color:#FFFFFF"/>
			<stop  offset="1" style="stop-color:#AAB2B5"/>
		</linearGradient>
		<path class="st8" d="M603.4,25.4l-49.4,104.4L374.7,509.5L144.1,35.6c-3.8-8.3-6.8-11.3-11.3-11.3c-4.5,0-7.5,5.3-8.3,13.6
			L70.3,529.1c-3,28.6-5.3,58-30.1,62.5c-11.3,2.3-16.6,2.3-22.6,2.3c-3.8,0-7.5,1.5-7.5,3.8c0,5.3,5.3,6.8,12.8,6.8
			c20.3,0,56.5-2.3,63.3-2.3c6,0,42.2,2.3,70.1,2.3c9,0,13.6-1.5,13.6-6.8c0-2.3-3-3.8-6-3.8c-4.5,0-15.8-0.8-28.6-3.8
			c-11.3-2.3-19.6-12.1-19.6-23.4c0-12.8,0-26.7,0.8-38.8l30.1-350h3c8.3,22,92.7,201.5,99.5,215.1c3.8,7.5,68.6,138.1,88.2,175
			c14.3,27.1,18.1,34.7,23.4,34.7c6.8,0,9-6.7,24.9-39.9l184.7-388.7l0,0l0,0l0,0L620,68.6C612.8,49.7,607.1,34.7,603.4,25.4z
			 M560.1,146.3c-0.9-2.6-1.8-4.6-2.6-6C558.3,141.7,559.2,143.7,560.1,146.3l2,5.8L560.1,146.3z"/>
		<linearGradient id="SVGID_9_" gradientUnits="userSpaceOnUse" x1="612.5088" y1="338.8299" x2="918.458" y2="338.8299">
			<stop  offset="0" style="stop-color:#FFFFFF"/>
			<stop  offset="1" style="stop-color:#AAB2B5"/>
		</linearGradient>
		<path class="st9" d="M910.9,593.9c-7.5,0-18.8-0.8-30.1-4.5c-15.8-4.5-37.7-16.6-64.8-83.6C784.2,426.6,688.6,182,646.9,73.2
			l-34.4,72.1l76.1,204.5l13.6,37.1l70.1,185.2c4.5,12.1,0,18.8-4.5,20.3c-3,0.8-5.3,2.2-5.3,5.2c0,4.5,8.3,4.5,22.6,5.3
			c52,1.5,107,1.5,118.3,1.5c8.3,0,15.1-1.5,15.1-6C918.5,594.6,915.4,593.9,910.9,593.9z"/>
		<linearGradient id="SVGID_10_" gradientUnits="userSpaceOnUse" x1="689.9609" y1="307.4799" x2="1194.6523" y2="307.4799">
			<stop  offset="0" style="stop-color:#FFFFFF"/>
			<stop  offset="1" style="stop-color:#AAB2B5"/>
		</linearGradient>
		<path class="st10" d="M1121.6,120.7C1031.9,28,894,34.8,819.4,34.8c-45.2,0-92.7,2.3-101.7,2.3c-1.7,0-12.9-0.5-27.7-1L749.4,187
			c0-44.5,0.2-88.1,0.7-106.2c0-8.3,2.3-12.1,9-15.1c6-3,33.9-5.3,49-5.3c89.7,0,175.6,10.5,246.4,85.1
			c30.9,32.4,72.3,94.2,72.3,189.9c0,10.5-0.5,21-1.4,31.4c1.8,36.7-2,140-89.8,213.4c36.7-17.4,61.6-38.8,77.7-55.7
			c42.2-44.5,81.4-117.5,81.4-212.5C1194.7,222.4,1159.2,159.9,1121.6,120.7z"/>
		<linearGradient id="SVGID_11_" gradientUnits="userSpaceOnUse" x1="551.3906" y1="422.1906" x2="621.5937" y2="422.1906">
			<stop  offset="0" style="stop-color:#FFFFFF"/>
			<stop  offset="1" style="stop-color:#AAB2B5"/>
		</linearGradient>
		<polygon class="st11" points="551.4,422.2 586.5,457.3 621.6,422.2 586.5,387.1 		"/>
		<linearGradient id="SVGID_12_" gradientUnits="userSpaceOnUse" x1="1421.7002" y1="314.3499" x2="1852.0947" y2="314.3499">
			<stop  offset="0" style="stop-color:#FFFFFF"/>
			<stop  offset="1" style="stop-color:#AAB2B5"/>
		</linearGradient>
		<path class="st12" d="M1849.1,393c-53.3-137.5-122.8-320-131.3-341.6c-9-23.4-12.1-27.1-16.6-27.1c-4.5,0-7.5,4.5-16.6,29.4
			l-26.1,71.4l0,0l-144.9,396.5c-13.6,37.7-28.6,66.3-63.3,70.8c-6,0.8-16.6,1.5-21.9,1.5c-3.8,0-6.8,1.5-6.8,4.5
			c0,4.5,4.5,6,14.3,6c35.4,0,76.9-2.3,85.1-2.3c8.3,0,40.7,2.3,58.8,2.3c6.8,0,11.3-1,11.3-5.5c0-3-2.3-4-7.5-4h-7.5
			c-12.8,0-28.6-7.3-28.6-22.4c0-13.6,3.8-31.9,10.5-50.8l45.2-133.3l13.6-38.7l57.8-177.4l0-0.1l8.5-26c3.8-11.3,7.5-11.3,11.3,0
			l71.1,203.5l14,37.1l13.3,35.3c2.5-3.7,9.1-1.7,15-5c8.1-4.5,20.5-7.6,28.8-11.3c6.4-2.9,10.1-1.3,15.3-5.2
			C1851.1,398.1,1850.1,395.5,1849.1,393z"/>
	</g>
	<g>
		<path class="st13" d="M630,753.6l33.7-0.7c8.3,0,12.5,0.6,12.5,1.7c0,3-16.9,5.7-50.6,8c-21.5,42.1-32.3,70.8-32.3,86
			c0,10.6,3.3,16,10.1,16c2.5,0,5.7-1.6,9.5-4.7c3.8-3.1,6.1-4.7,6.9-4.7c0.8,0,1.2,0.6,1.2,1.7c-1.2,4.2-4.7,7.6-10.6,10.4
			c-5.9,2.8-10.9,4.2-14.9,4.2c-4,0-7.2-0.2-9.5-0.7c-5.6-2.1-8.3-8.8-8.3-20.1c0-23.4,8.9-53.1,26.7-89.2l-41.6,1
			c-31,30.3-62.1,56.9-93.3,79.8c-46.7,34-83.3,51-109.6,51c-1.6,0-3.2-0.1-4.9-0.3c-35.6-3-53.4-21.3-53.4-54.8
			c0-19.9,6.2-40.9,18.7-63.1c16.7-29.6,39.4-54.9,68.3-75.8c28.9-20.9,54.8-31.4,77.7-31.4s34.3,8.4,34.3,25.3
			c0,11.3-3.5,23.9-10.4,37.8c-6.9,13.9-14,22.7-21.2,26.4c-0.7,0.2-1.4,0.3-2.3,0.3c-0.8,0-1.2-0.2-1.2-0.7l11.4-18.7
			c7.9-12.3,11.8-23,11.8-32.3c0-9.2-2-16.7-6.1-22.4c-4-5.7-10.5-8.5-19.3-8.5c-18,0-39.6,10.1-64.7,30.2
			c-25.1,20.1-44.2,44.9-57.2,74.2c-13.1,29.4-19.6,52.3-19.6,68.7c0,24.7,12.6,37.1,37.8,37.1c24.1,0,56.7-15.5,97.8-46.5
			c18.3-13.6,48-39.4,89.2-77.4c-8.1,0.5-15.6,1.3-22.5,2.4c-14.8,2.8-21.7,2.3-20.8-1.4c0.9-8.6,5.3-12.8,13.2-12.8
			c15.3,1.9,28.1,2.8,38.5,2.8c19.9-18.3,49.6-48.2,89.2-89.8c26.6-28,42.8-42,48.6-42c2.5,0,3.8,2,3.8,5.9c0,3.9-1,10.1-3.1,18.4
			c-2.1,8.3-4.4,13.4-6.9,15.3c-5.3,3.7-10.3,8.7-14.9,15.1c-4.6,6.4-11.2,18.3-19.8,35.7C643.3,728.6,636,742.8,630,753.6z
			 M657.7,669l-88.8,83.3h20.5c4.9,0.2,10.9,0.3,18,0.3C614.1,739.4,630.9,711.6,657.7,669z"/>
		<path class="st13" d="M734.7,766.5c0-15.7,4.9-23.6,14.6-23.6c0.9,0,2,0.1,3.1,0.3c3.9,0.7,5.9,3.7,5.9,9c0,5.3-0.9,12-2.8,20.1
			c-1.9,6-3.1,10.5-3.8,13.5c0.7,3.9,2.6,9,5.7,15.1c3.1,6.1,7.4,9.2,12.8,9.2c5.4,0,11.5-3.7,18.2-11.1c1.4-1.6,2.7-2.4,4-2.4
			c1.3,0,2,0.8,2.1,2.3c0.1,1.5-0.8,3.5-2.6,6.1c-7.2,8.6-14.7,12.8-22.5,12.8c-11.3,0-20.5-8.3-27.4-25
			c-7.2,16.4-17.3,30.6-30.5,42.5c-13.2,11.9-26.3,17.9-39.2,17.9c-12.3,0-18.4-9.2-18.4-27.8c0-14.6,13.6-41.4,40.8-80.5
			c27.2-39.1,47.9-58.6,62.3-58.6c3,0,5.7,0.9,8.2,2.8c2.4,1.9,3.6,4,3.6,6.6c0-0.2-1.7,1.5-5,5.2c-3.4,3.7-12.5,13.6-27.4,29.8
			c-14.9,16.2-29.5,34-43.9,53.4c-14.3,19.4-21.5,34.5-21.5,45.1c0,2.8,0.7,5.8,2.3,9c1.5,3.2,4,4.9,7.5,4.9
			c10.2,0,22.1-7.9,35.7-23.6c11.3-13.9,18.3-25.6,20.8-35C735.5,779.7,734.7,773.7,734.7,766.5z"/>
		<path class="st13" d="M872.8,779.3c0,8.1-7.8,21.6-23.2,40.6c-18.3,22.4-33.9,33.6-46.8,33.6h-5.5c-6,0-10.8-3.1-14.2-9.4
			c-2.8-4.4-4.2-9.2-4.2-14.6c0-13.9,10.1-33.4,30.4-58.5c20.2-25.1,36.6-37.6,49.1-37.6c11.8,0,17.7,6.2,17.7,18.7
			c0,3.2-0.6,7.4-1.7,12.5c0.2,0.7,2.4,1,6.6,1c4.2,0,10.5-2.2,19.1-6.6c-0.2,3.9-9.4,9.6-27.4,17
			C872.7,777.1,872.8,778.2,872.8,779.3z M850.3,761.3c-7.9,0-19,9.3-33.5,27.8c-14.5,18.5-21.7,32.1-21.7,40.9
			c0,8.8,2.8,13.2,8.3,13.2c9.9,0,22.5-9,37.8-27.1c15.3-18,22.9-31,22.9-38.9C860.4,775.2,855.8,769.8,850.3,761.3z"/>
		<path class="st13" d="M995.6,747.1l4.9-1c3,0,5.4,0.9,7.1,2.8c1.7,1.9,2.6,3.3,2.6,4.3c0,1-0.1,2.2-0.3,3.5
			c-0.2,1.3-3.6,7.1-10.1,17.5c-8.1,14.1-14.8,26-20.1,35.7c-18.7,34.9-33.1,58.9-43,71.8c-21.3,28.2-41.5,42.3-60.7,42.3
			c-6.7,0-12.5-2.8-17.5-8.5c-5-5.7-7.6-12-7.8-18.9c0.7-2.8,1.7-4.2,3.1-4.2c0.7,0,1.3,0.8,1.7,2.4c1.2,6,3.4,10.6,6.6,13.9
			c3.2,3.2,6.5,4.9,9.7,4.9c13.2,0,27.3-8.7,42.3-26c9.9-11.6,20.9-28.4,33-50.6l17.3-34.3l-26,26.4c-16.7,16-28,23.9-34.2,23.9
			c-6.1,0-12-2.1-17.5-6.2c-6.2-4.6-9.4-10.8-9.4-18.4c0-16.9,11.8-37,35.6-60.4c23.7-23.4,45.3-35,64.7-35c7.9,0,12.9,2.5,15.3,7.6
			c0.7,1.9,1.3,3.4,1.7,4.7C995,746.4,995.4,747.1,995.6,747.1z M891.9,832.4c0,8.3,2.9,12.5,8.7,12.5c13.4,0,31.7-14.7,54.8-44.1
			l36.8-50.6c-1.4-3.2-4.3-4.9-8.7-4.9c-14.3,0-33.2,11-56.5,33.1C903.6,800.5,891.9,818.5,891.9,832.4z"/>
		<path class="st13" d="M1123.6,749.1l4.9-1c2.5,0,5,1,7.3,3.1c2.3,2.1,3.5,3.7,3.5,4.9c0,1.2-7.2,12.3-21.5,33.5
			c-14.3,21.2-21.5,35.9-21.5,44.2c0,0.7,0.1,1.4,0.3,2.1c1.2,5.3,3.7,8,7.6,8c12,0,34-19.9,65.9-59.7c0.7-0.9,1.5-1.4,2.4-1.4
			c0.9,0,1.4,0.9,1.4,2.6c0,1.7-1,4-3.1,6.8c-29.6,39.5-52.2,59.3-67.6,59.3c-2.1,0-4-0.3-5.9-1c-10.2-3.9-15.3-11.6-15.3-22.9
			c0-3.9,0.5-7.9,1.4-11.8l-21.5,20.8c-13.6,12-23.5,18-29.7,18c-6.1,0-12-2-17.5-5.9c-6.2-4.6-9.4-10.8-9.4-18.4
			c0-16.9,11.8-37.1,35.4-60.5c23.6-23.5,45.2-35.2,64.9-35.2c7.6,0,12.7,2.7,15.3,8c0.7,1.9,1.3,3.4,1.7,4.7
			C1123,748.5,1123.4,749.1,1123.6,749.1z M1019.9,834.5c0,8.3,2.9,12.5,8.7,12.5c13.4,0,31.7-14.7,54.8-44.1l36.8-50.6
			c-1.9-3.2-4.9-4.9-9-4.9c-14.1,0-32.8,10.9-56.2,32.8C1031.6,802,1019.9,820.1,1019.9,834.5z"/>
		<path class="st13" d="M1265.2,747.7c25.9-42.1,43.9-63.1,54.1-63.1c1.6,0,3.9,0.5,6.8,1.6c2.9,1,4.3,2.6,4.3,4.7
			c0,1.2-0.6,2.7-1.7,4.5c-18.5,22.7-32.3,39.7-41.3,51c-27.3,34.5-42.3,59.2-45.1,74.2c-0.7,3.2-1,6.5-1,9.7
			c0,10.4,4.3,15.6,12.8,15.6c17.1,0,39.4-15.8,67-47.5c2.3-2.3,4.3-3.6,5.9-4c1.6-0.3,2.4,0.1,2.4,1.2c0,1.2-0.7,2.5-2.1,4.2
			c-26.8,32.1-50.6,50.1-71.5,53.8c-1.2,0.2-2.8,0.3-4.9,0.3c-7.2,0-12.5-2.5-16.1-7.5c-3.6-5-5.4-10.3-5.4-16.1
			c0-6.5,1.3-13.6,3.8-21.5l-28.1,28.1c-12.7,11.8-22.7,17.7-30,17.7c-7.3,0-13.4-2-18.2-5.9c-5.8-4.4-8.7-10.5-8.7-18.4
			c0-16.9,11.8-37.1,35.4-60.5c23.6-23.5,45.2-35.2,64.9-35.2c6.5,0,11,1.7,13.5,5.2C1263,740.9,1264,743.6,1265.2,747.7z
			 M1162.8,834.5c0,8.3,2.9,12.5,8.7,12.5c9.9,0,26.5-13.6,49.6-40.9c4.2-4.9,18-23,41.6-54.5c-1.6-2.8-4.4-4.2-8.3-4.2
			c-14.3,0-33.2,10.9-56.5,32.8C1174.5,802,1162.8,820.1,1162.8,834.5z"/>
		<path class="st13" d="M1403.6,779.3c0,8.1-7.8,21.6-23.2,40.6c-18.3,22.4-33.9,33.6-46.8,33.6h-5.5c-6,0-10.8-3.1-14.2-9.4
			c-2.8-4.4-4.2-9.2-4.2-14.6c0-13.9,10.1-33.4,30.4-58.5c20.2-25.1,36.6-37.6,49.1-37.6c11.8,0,17.7,6.2,17.7,18.7
			c0,3.2-0.6,7.4-1.7,12.5c0.2,0.7,2.4,1,6.6,1c4.2,0,10.5-2.2,19.1-6.6c-0.2,3.9-9.4,9.6-27.4,17
			C1403.4,777.1,1403.6,778.2,1403.6,779.3z M1381,761.3c-7.9,0-19,9.3-33.5,27.8c-14.5,18.5-21.7,32.1-21.7,40.9
			c0,8.8,2.8,13.2,8.3,13.2c9.9,0,22.5-9,37.8-27.1c15.3-18,22.9-31,22.9-38.9C1391.2,775.2,1386.6,769.8,1381,761.3z"/>
		<path class="st13" d="M1474.3,847.7c-6.7,3.9-15,5.9-24.8,5.9c-9.8,0-17.3-3.2-22.5-9.7c-5.2-6.5-9.7-16.8-13.4-30.9
			c-4.2,4.2-7.1,6.2-8.7,6.2c-1.2,0-1.7-0.8-1.7-2.4c0-1.6,0.6-3,1.7-4.2c7.6-9.5,20.6-23.1,38.9-40.9l43.7-40.9
			c12.5-11.8,19.9-17.7,22.2-17.7c7.4,0,11.1,2.8,11.1,8.3c0,2.8-1.1,5.5-3.3,8.2c-2.2,2.7-3.8,4.7-4.9,6.2c-1,1.5-2.1,2.9-3.3,4.3
			c-4.2,7.2-8.4,22-12.7,44.4c-4.3,22.4-7.6,38-9.9,46.8c19.2-0.2,39-12.7,59.3-37.5c2.3-2.3,4-3.5,5.2-3.5c1.2,0,1.7,0.8,1.7,2.3
			c0,1.5-1,3.5-3.1,6.1c-13.4,15.7-25.9,26.7-37.5,33c-6.9,3.5-16,6.4-27.1,8.7L1474.3,847.7z M1427.5,809.1
			c0,7.9,2.6,14.3,7.8,19.3c5.2,5,11,7.5,17.5,7.5c6.5,0,11.4-1.3,14.9-3.8c4.6-2.5,9.2-13.2,13.7-31.9c4.5-18.7,7.2-35.3,8.2-49.6
			l1.4-11.8c-12.7,9.5-26.3,21.7-40.8,36.8c-14.5,15-21.9,25-22.4,29.8C1427.6,806.7,1427.5,808,1427.5,809.1z"/>
	</g>
</g>
<path class="st14" d="M1992.6,844.2c3-1,6.1-2,9.1-2.8c3.1-0.9,6.1-1.8,9.2-2.5l4.6-1.2l4.6-1.1c3.1-0.7,6.2-1.5,9.3-2.2l9.4-1.9
	l4.7-1l4.7-0.8l9.4-1.7c3.1-0.6,6.3-1,9.5-1.4c6.3-0.9,12.6-1.9,19-2.6l9.5-1.1c3.2-0.4,6.4-0.7,9.5-0.9l19.1-1.5
	c6.4-0.3,12.8-0.6,19.2-0.9c6.4-0.4,12.8-0.3,19.2-0.4l9.6,0c1.6,0,3.2,0,4.8,0l4.8,0.1l19.2,0.7c3.2,0.1,6.4,0.3,9.6,0.6l9.6,0.7
	l9.6,0.7c1.6,0.1,3.2,0.2,4.8,0.4l4.8,0.6l19.1,2.3c6.4,0.7,12.7,1.8,19,2.8l18.9,3.2l4.5,0.8l0,4.6l-0.2,17.5l-0.1,6.6l-6.4-1.4
	c-3.6-0.8-7.4-1.6-11.1-2.3c-3.7-0.7-7.5-1.4-11.3-2.1c-3.8-0.7-7.5-1.3-11.3-1.9l-11.3-1.7c-3.8-0.6-7.6-1-11.4-1.6
	c-3.8-0.6-7.6-0.9-11.4-1.4l-5.7-0.6l-5.7-0.5c-3.8-0.3-7.6-0.8-11.4-1l-11.4-0.9l-11.5-0.6c-3.8-0.2-7.6-0.3-11.5-0.4l-5.7-0.1
	l-2.9-0.1c-1,0-1.9,0-2.9,0l-11.5,0.1c-1.9,0-3.8,0.1-5.8,0.2l-5.8,0.3l-5.8,0.3c-1.9,0.1-3.8,0.3-5.7,0.4l-11.5,0.9l11.4-2.2
	c1.9-0.3,3.8-0.8,5.7-1l5.7-0.8l5.7-0.8c1.9-0.3,3.8-0.5,5.8-0.7l11.6-1c1-0.1,1.9-0.2,2.9-0.2l2.9-0.1l5.8-0.3l5.8-0.3
	c1.9-0.1,3.9-0.1,5.8-0.1l11.6-0.1l11.6,0.2c3.9,0,7.7,0.3,11.6,0.4l5.8,0.3l5.8,0.4c3.9,0.3,7.7,0.5,11.6,0.9
	c3.9,0.4,7.7,0.7,11.6,1.1c3.9,0.4,7.7,0.8,11.5,1.4c3.8,0.5,7.7,1,11.5,1.6l5.8,0.9l5.7,1c3.8,0.7,7.6,1.3,11.5,2.1l-6.5,5.2
	l-0.2-17.5l4.5,5.4l-18.7-2.9c-6.2-1-12.4-2.1-18.7-2.7l-18.8-2.2l-4.7-0.6c-1.6-0.2-3.1-0.3-4.7-0.4l-9.4-0.8l-9.4-0.8
	c-3.1-0.3-6.3-0.6-9.4-0.7l-18.9-0.9l-4.7-0.2c-1.6-0.1-3.2-0.1-4.7-0.1l-9.5-0.2c-6.3-0.1-12.6-0.4-18.9-0.2l-18.9,0.2l-18.9,0.7
	c-3.2,0.1-6.3,0.3-9.5,0.5l-9.5,0.6c-6.3,0.3-12.6,0.9-18.9,1.5c-6.3,0.5-12.6,1.3-18.9,1.9l-4.7,0.5l-4.7,0.6l-9.4,1.2
	c-3.1,0.4-6.3,0.9-9.4,1.3l-4.7,0.7l-4.7,0.8C2005.1,841.8,1998.9,842.9,1992.6,844.2z"/>
<path class="st14" d="M2008.6,857.9c0,0,0.5,1.4,1.5,3.9c1,2.5,2.6,6.1,4.9,10.5c2.3,4.5,5.3,9.7,9.1,15.5
	c3.8,5.7,8.6,11.9,14.2,18.2c5.7,6.2,12.4,12.4,20.1,18.1c7.7,5.7,16.4,10.8,25.9,14.9c2.4,1.1,4.9,1.9,7.3,2.9
	c1.2,0.5,2.5,0.9,3.7,1.3c1.3,0.4,2.5,0.8,3.8,1.2c1.3,0.4,2.6,0.8,3.9,1.1c1.3,0.3,2.6,0.7,3.9,1l2,0.5c0.7,0.2,1.3,0.3,2,0.4
	c1.3,0.3,2.7,0.5,4,0.8c10.7,2,21.8,3.1,33,3.2c2.8-0.1,5.6-0.1,8.4-0.2l2.1,0l0.9,0l1.1-0.1l4.3-0.3c5.8-0.3,11.2-0.9,16.7-1.4
	c2.7-0.4,5.5-0.7,8.2-1.1c2.7-0.3,5.4-0.9,8.1-1.3c2.7-0.4,5.3-1,7.9-1.6c1.3-0.3,2.6-0.6,3.9-0.8c1.3-0.3,2.6-0.6,3.8-1
	c10.2-2.6,19.8-5.8,28.6-9.7c8.8-3.9,16.8-8.3,23.7-13.1c6.9-4.8,12.8-9.9,17.5-14.8c4.7-5,8.4-9.8,11.1-13.9
	c2.7-4.2,4.5-7.7,5.7-10.1c1.1-2.4,1.6-3.8,1.6-3.8s-0.2,1.4-1,4c-0.8,2.6-2,6.4-4.3,11c-2.3,4.6-5.4,10-9.8,15.6
	c-1.1,1.4-2.3,2.8-3.5,4.3c-1.3,1.4-2.6,2.9-4,4.3c-2.8,2.9-5.9,5.8-9.4,8.6c-0.9,0.7-1.7,1.4-2.6,2.1c-0.9,0.7-1.8,1.4-2.7,2
	c-0.9,0.7-1.9,1.4-2.8,2.1c-1,0.6-2,1.3-3,2c-1,0.7-2,1.3-3,2c-1,0.6-2.1,1.2-3.2,1.9c-2.1,1.3-4.3,2.4-6.6,3.6
	c-9,4.6-19,8.6-29.6,11.7c-1.3,0.4-2.7,0.8-4,1.2c-1.3,0.3-2.7,0.7-4.1,1c-2.7,0.7-5.5,1.4-8.2,1.9c-2.8,0.5-5.6,1.2-8.4,1.6
	c-2.8,0.4-5.7,0.9-8.5,1.3c-5.8,0.7-11.7,1.4-17.3,1.7l-4.3,0.3l-1.1,0.1l-0.4,0l-0.3,0l-0.6,0l-2.2,0.1c-2.9,0.1-5.9,0.1-8.8,0.2
	c-11.8-0.2-23.7-1.3-35.1-3.7c-5.7-1.1-11.3-2.8-16.8-4.6c-1.4-0.5-2.7-1-4-1.5c-1.3-0.5-2.7-0.9-4-1.5c-1.3-0.6-2.6-1.1-3.9-1.7
	c-1.3-0.6-2.6-1.1-3.8-1.7c-10.1-4.8-19.2-10.8-27-17.3c-7.9-6.5-14.4-13.6-19.8-20.6c-5.4-7-9.6-13.9-13-20.2
	c-3.3-6.3-5.7-12-7.4-16.8c-1.8-4.8-2.8-8.6-3.5-11.2C2008.9,859.4,2008.6,857.9,2008.6,857.9z"/>
<path class="st14" d="M1890.3,372.6c-2.6-0.8-5.1-1.8-7.5-3c-2.5-1.1-4.9-2.5-7.2-4.1c-0.6-0.4-1.1-0.9-1.7-1.4
	c-0.5-0.5-1.1-1-1.6-1.6c-0.5-0.6-0.9-1.3-1.2-2.2c-0.1-0.2-0.1-0.5-0.2-0.7c0-0.2-0.1-0.5-0.1-0.7l0-1.1c0-0.3,0.1-0.8,0.1-1.2
	c0.1-0.4,0.2-0.8,0.2-1.2c0.2-0.8,0.5-1.6,1-2.4c0.5-0.8,1.1-1.4,1.8-2c0.4-0.3,0.8-0.5,1.2-0.7c0.2-0.1,0.4-0.2,0.6-0.3
	c0.2-0.1,0.4-0.2,0.8-0.3l0.1,0l0.3,0c5-0.2,10.1-0.4,15.1-0.5c5-0.1,10.1-0.2,15.1-0.3c5-0.1,10.1-0.1,15.1-0.1l7.6,0l7.6,0.1l2,0
	l0.7,1.8c0.6,1.4,0.9,2.7,1.3,4.1c0.3,1.4,0.6,2.9,0.5,4.6c-0.1,0.9-0.2,1.9-0.7,3c-0.3,0.6-0.7,1.1-1.2,1.6
	c-0.3,0.2-0.6,0.4-0.9,0.6l-0.5,0.2l-0.1,0.1l0,0l-0.3,0.1l0,0l-0.1,0c-0.2,0.1-0.8,0.2-1.3,0.2c-0.5,0.1-0.7,0.1-1.1,0.1
	c-0.7,0-1.4,0.1-2,0.1c-2.6,0-5.2-0.1-7.8-0.1c-2.6-0.1-5.1-0.3-7.7-0.4c-5.1-0.4-10.2-0.8-15.3-1.3c-2.5-0.3-5.1-0.5-7.6-0.8
	c-2.5-0.3-5.1-0.6-7.6-1c2.6-0.2,5.1-0.3,7.7-0.4c2.6-0.1,5.1-0.2,7.7-0.3c5.1-0.2,10.2-0.3,15.3-0.4l7.6-0.2
	c2.5-0.1,5.1-0.2,7.5-0.3c1.2-0.1,2.6-0.2,3.1-0.4l0.1,0l0,0.4c0.2-0.1-0.3,0.5-0.2,0.5h0h0c0,0,0-0.4,0-0.4c0,0-0.1-0.2-0.1-0.2
	c-0.1,0.1-0.1,0-0.1,0c0,0,0.1-0.4,0.1-0.8c0-0.8-0.2-1.9-0.5-3c-0.3-1-0.7-2.2-1.1-3.2l2.7,1.8l-7.6,0.1l-7.6,0
	c-5,0-10.1,0-15.1-0.1c-5-0.1-10.1-0.2-15.1-0.3c-5-0.1-10.1-0.3-15.1-0.5l0.4,0c0.1,0-0.1,0-0.2,0c-0.1,0-0.2,0.1-0.3,0.1
	c-0.2,0.1-0.4,0.2-0.6,0.3c-0.4,0.2-0.7,0.5-1,0.9c-0.3,0.3-0.5,0.8-0.7,1.2c-0.1,0.2-0.2,0.5-0.2,0.7c0,0.3-0.1,0.4-0.2,0.8
	l-0.1,0.9c0,0.1,0,0.2,0,0.3l0,0.3c0.1,0.4,0.3,0.9,0.6,1.4c0.6,1,1.4,1.9,2.3,2.8c0.9,0.9,1.9,1.7,3,2.5c1,0.8,2.1,1.6,3.2,2.3
	C1885.7,369.8,1888,371.2,1890.3,372.6z"/>
<path class="st14" d="M1929,365.8c0,0-0.4,0.4-1.2,1c-0.4,0.3-0.8,0.7-1.3,1.2c-0.5,0.4-1,0.9-1.6,1.5c-0.5,0.5-1.1,1.1-1.6,1.7
	c-0.3,0.3-0.5,0.6-0.8,0.9c-0.2,0.3-0.5,0.6-0.7,1c-0.2,0.3-0.4,0.7-0.6,1c-0.1,0.3-0.3,0.7-0.4,1c-0.1,0.3-0.2,0.7-0.3,1
	c0,0.3-0.2,0.7-0.1,1c0,0.2,0,0.4,0,0.5l0,0.3l0,0l0,0c0,0,0-0.4,0-0.2l0,0l0,0.1l0,0.2c0.1,0.5,0.1,1.1,0.2,1.6l0.1,0.8
	c0,0.3,0,0.5,0.1,0.7c0.1,0.4,0.2,0.8,0.2,1.2c0.1,0.8,0.3,1.7,0.4,2.5c0.1,0.9,0.3,1.6,0.5,2.4c0.1,0.8,0.4,1.4,0.5,2.1
	c0.1,0.6,0.3,1.2,0.4,1.7c0.3,1,0.4,1.5,0.4,1.5s-0.1-0.1-0.4-0.2c-0.2-0.1-0.6-0.3-1-0.6c-0.4-0.3-1-0.6-1.5-1.1
	c-0.5-0.5-1.1-1-1.7-1.7c-0.5-0.7-1.2-1.4-1.6-2.3c-0.5-0.9-1-1.8-1.4-2.9c-0.2-0.5-0.4-1.1-0.6-1.7c-0.2-0.6-0.2-1-0.4-1.6
	c-0.1-0.5-0.2-1-0.3-1.6l0-0.2l-0.2-0.1l-0.2-0.2v0v-0.1l0.1-0.5l0.1-1.1c0-0.7,0.3-1.4,0.4-2.1c0.2-0.7,0.5-1.3,0.8-2
	c0.3-0.6,0.7-1.2,1.1-1.7c0.4-0.5,0.8-1,1.3-1.4c0.5-0.4,0.9-0.8,1.4-1.1c0.5-0.3,0.9-0.6,1.4-0.9c0.5-0.2,0.9-0.5,1.4-0.6
	c0.5-0.2,0.9-0.3,1.3-0.5c0.8-0.2,1.6-0.4,2.3-0.5c0.7-0.1,1.3-0.1,1.8-0.1c0.5,0,0.9,0,1.2,0C1928.9,365.7,1929,365.8,1929,365.8z"
	/>
<path class="st14" d="M1900,337.4c0,0,5.9-90.7,81.2-117.5c76.3-27.1,115.3,0.5,151,23.1c35.7,22.6,55.6,15.7,55.6,15.7
	s-13.7,15.1-63.8-5.5c-50.1-20.6-91.3-39.6-140.7-14.9c-49.4,24.7-60.1,99-60.1,99H1900z"/>
<path class="st14" d="M1957.2,353.3c-0.9-2.3-1.6-4.6-2.3-7c-0.7-2.4-1.3-4.7-1.9-7.1c-1.1-4.8-1.9-9.7-2.4-14.6
	c-0.2-2.5-0.4-4.9-0.4-7.4c0-2.5,0.1-5,0.3-7.5c0.3-2.5,0.6-5,1.2-7.4c0.2-1.2,0.6-2.4,0.9-3.7c0.4-1.2,0.7-2.4,1.2-3.6
	c0.9-2.4,2.1-4.7,3.4-6.9l1.1-1.6c0.2-0.3,0.3-0.5,0.6-0.8l0.6-0.7l2.3-2.9c0.7-1,1.7-1.9,2.5-2.9c0.8-1,1.7-1.9,2.6-2.8
	c0.9-0.9,1.8-1.8,2.7-2.7l2.8-2.5c1.9-1.6,3.9-3.2,6-4.6c1-0.8,2.1-1.4,3.2-2.1c1.1-0.7,2.2-1.3,3.3-1.9c2.2-1.2,4.5-2.4,6.8-3.3
	c1.2-0.5,2.4-0.9,3.6-1.4c1.3-0.4,2.4-0.8,3.8-1.1l4.9-1.1l-2.4,4.6c-1,1.9-1.9,3.9-2.8,5.9c-0.9,2-1.8,4-2.6,6
	c-1.7,4-3.2,8.1-4.5,12.3c-0.7,2.1-1.3,4.2-1.9,6.3c-0.6,2.1-1.1,4.2-1.5,6.3c-0.2,1.1-0.4,2.1-0.6,3.2c-0.2,1.1-0.4,2.1-0.5,3.2
	c-0.3,2.1-0.5,4.3-0.6,6.4c-0.1,1.1-0.1,2.1-0.1,3.2c0,1.1,0,2.1,0.1,3.2c0.1,2.1,0.3,4.2,0.8,6.3c0.4,2.1,1,4,1.7,6l0.1,0.2
	c0,0,0,0.1,0,0.1l0,0.1l0.2,0.4l0.3,0.8l0.6,1.5l1.3,3.1l1.3,3.1l1.4,3c0.9,2,1.8,4,2.8,5.9l1.5,2.9c0.5,0.9,1.1,1.8,1.6,2.8
	c0.5,1,1.2,1.7,1.7,2.6c0.3,0.5,0.6,0.7,0.9,1.1c0.1,0.2,0.3,0.4,0.4,0.4l0.2,0.1l0,0c0,0,0,0,0,0c-0.1,0-0.2-0.1-0.2-0.1l-0.1,4.4
	c-2.3,0.6-4.5,0.9-6.8,1.3c-2.3,0.3-4.5,0.6-6.9,0.6c-2.3,0.1-4.6,0-7-0.3c-2.3-0.3-4.7-0.8-7-1.9c-1.1-0.5-2.3-1.2-3.3-2.1
	c-0.5-0.5-1-0.9-1.4-1.5l-0.2-0.2l-0.1-0.1l0,0l-0.1-0.1l0,0l-0.2-0.4c-0.1-0.3-0.3-0.4-0.4-0.7c-0.6-1.2-1.1-2.3-1.5-3.4
	c-0.2-0.6-0.4-1.1-0.5-1.7c-0.2-0.6-0.3-1.1-0.4-1.7c-0.5-2.2-0.9-4.5-1.2-6.7c-0.3-2.3-0.5-4.5-0.6-6.8c-0.1-2.3-0.2-4.5-0.1-6.8
	c0-2.2,0.1-4.5,0.3-6.7c0.2-2.2,0.4-4.5,0.7-6.7c0.3-2.2,0.6-4.4,1.1-6.6c0.4-2.2,0.9-4.4,1.5-6.5c0.6-2.2,1.3-4.3,2.1-6.4
	c0.4-1.1,0.8-2.1,1.2-3.1c0.5-1,0.9-2,1.4-3c1-2,2.2-3.9,3.4-5.7c-1.1,1.9-2.2,3.9-3,5.9c-0.9,2-1.6,4.1-2.2,6.2
	c-0.7,2.1-1.2,4.3-1.6,6.4c-0.4,2.2-0.8,4.3-1.1,6.5c-0.3,2.2-0.5,4.4-0.7,6.6c-0.2,2.2-0.3,4.4-0.3,6.6c0,2.2,0,4.4,0,6.6
	c0.1,2.2,0.2,4.4,0.4,6.6c0.2,2.2,0.5,4.4,0.8,6.5c0.3,2.2,0.8,4.3,1.4,6.3c0.1,0.5,0.3,1,0.4,1.5c0.2,0.5,0.3,1,0.5,1.5
	c0.3,1,0.8,1.9,1.2,2.7c0.1,0.2,0.3,0.5,0.4,0.7l0.2,0.3l0,0c-0.1-0.2,0,0,0-0.1l0,0l0.1,0.1l0.1,0.1c0.3,0.3,0.6,0.6,0.9,0.9
	c0.7,0.6,1.5,1,2.4,1.4c1.8,0.7,3.8,1.2,5.8,1.4c2.1,0.2,4.2,0.2,6.3,0c2.1-0.1,4.3-0.4,6.4-0.7c2.1-0.3,4.3-0.8,6.3-1.3l-0.1,4.4
	c-0.2-0.1-0.4-0.2-0.6-0.3c-0.1-0.1-0.2-0.1-0.2-0.1l-0.1-0.1l-0.5-0.4c-0.4-0.3-0.5-0.5-0.8-0.7c-0.4-0.5-0.9-1-1.3-1.4
	c-0.7-1-1.5-1.9-2-2.9c-0.6-1-1.2-2-1.8-3l-1.6-3c-1.1-2-2-4.1-3-6.1l-1.4-3.1l-1.3-3.1l-1.3-3.1l-0.6-1.5l-0.3-0.8l-0.2-0.4
	l-0.1-0.2l-0.1-0.2c-0.8-2.2-1.5-4.5-2-6.8c-0.5-2.3-0.7-4.6-0.9-6.9c-0.1-1.2-0.1-2.3-0.1-3.5c0-1.2,0-2.3,0.1-3.5
	c0.1-2.3,0.3-4.6,0.7-6.8c0.2-1.1,0.3-2.3,0.5-3.4c0.2-1.1,0.4-2.2,0.7-3.4c0.5-2.2,1-4.4,1.6-6.6c0.6-2.2,1.3-4.3,2-6.5
	c1.4-4.3,3-8.5,4.8-12.7c0.9-2.1,1.8-4.1,2.8-6.2c1-2,2-4,3.1-6.1l2.5,3.5c-1,0.2-2.2,0.6-3.3,0.9c-1.1,0.4-2.2,0.8-3.3,1.2
	c-2.2,0.9-4.3,1.9-6.4,3c-1,0.6-2.1,1.1-3.1,1.8c-1,0.6-2,1.2-3,1.9c-2,1.3-3.9,2.8-5.8,4.2l-2.7,2.3c-0.9,0.8-1.7,1.6-2.6,2.5
	c-0.9,0.8-1.7,1.7-2.5,2.5c-0.8,0.9-1.6,1.7-2.4,2.6l-2.4,2.8l-0.6,0.7c-0.1,0.2-0.3,0.4-0.5,0.7l-1,1.4c-1.3,2-2.5,4-3.4,6.2
	c-0.5,1.1-0.9,2.2-1.3,3.3c-0.3,1.1-0.7,2.3-1,3.4c-0.6,2.3-1,4.7-1.4,7c-0.3,2.4-0.6,4.8-0.6,7.2c-0.1,2.4-0.1,4.8,0,7.3
	c0.1,2.4,0.3,4.9,0.5,7.3c0.2,2.4,0.6,4.8,1,7.3C1954.8,343.7,1955.8,348.5,1957.2,353.3z"/>
<path class="st14" d="M2056,242.1c0,0,0.8,1.2,2.1,3.5c1.3,2.3,3.1,5.8,4.6,10.6c0.8,2.4,1.4,5.1,1.6,8.2c0.1,0.8,0.1,1.6,0,2.4
	c0,0.4,0,0.8,0,1.2c-0.1,0.4-0.1,0.8-0.2,1.3c-0.1,0.4-0.1,0.8-0.2,1.3c-0.1,0.4-0.3,0.8-0.4,1.3c-0.1,0.4-0.2,0.8-0.4,1.3
	c-0.2,0.4-0.3,0.8-0.5,1.2c-2.8,6.5-6.7,13.2-8.6,21.2c-1,4-1.4,8.2-1.2,12.6c0.1,1.1,0.1,2.2,0.2,3.3c0.1,1.1,0.3,2.2,0.4,3.3
	c0.2,1.1,0.5,2.2,0.7,3.4c0.1,0.6,0.2,1.1,0.4,1.7c0.2,0.6,0.4,1.1,0.5,1.7c0.4,1.1,0.7,2.2,1.1,3.4c0.4,1.1,0.9,2.2,1.3,3.4
	l0.7,1.7l0.1,0.2c-0.1-0.2,0,0,0,0l0.1,0.1l0.2,0.4l0.4,0.8l0.4,0.8l0.2,0.4l0.2,0.3l0.9,1.4c2.6,3.8,6.4,7,10.7,9.4
	c8.7,4.6,19.7,5.9,29.8,3.6c2.5-0.6,5-1.4,7.3-2.5c0.6-0.3,1.2-0.5,1.7-0.9c0.6-0.3,1.1-0.6,1.7-1c1-0.7,2.1-1.4,3.1-2.3
	c1-0.8,1.8-1.7,2.7-2.6c0.8-1,1.6-1.9,2.2-3c0.7-1,1.2-2.2,1.8-3.3c0.4-1.2,0.9-2.3,1.2-3.6c0.1-0.6,0.3-1.2,0.4-1.8l0.3-1.9
	c0.1-0.6,0.1-1.3,0.1-1.9l0.1-1.8l-0.1-2.1l-0.1-1.1c0-0.3-0.1-0.6-0.1-1l-0.3-1.9c-0.1-0.6-0.3-1.3-0.4-1.9c-0.2-1.3-0.7-2.5-1-3.8
	l-0.7-1.8c-0.2-0.6-0.5-1.2-0.8-1.8c-1.1-2.4-2.5-4.5-4-6.5c-0.8-1-1.7-1.9-2.5-2.8c-0.9-0.8-1.9-1.7-2.9-2.5
	c-2-1.5-4.1-2.8-6.4-3.8c-4.6-1.9-9.6-2.6-14.1-1.5c-2.3,0.5-4.4,1.5-6.2,2.8c-1.8,1.3-3.3,3-4.6,4.9c-1.2,1.9-2.1,4.1-2.7,6.3
	l-0.1,0.2l0,0.1c0-0.2,0,0,0,0l-0.1,0.5l-0.2,0.9c-0.1,0.6-0.3,1.2-0.3,1.7c-0.1,0.5-0.1,1.1-0.2,1.6c0,0.5,0,1.1,0,1.6
	c0,2.2,0.4,4.3,1.2,6.2c0.8,1.9,2,3.6,3.4,5c2.9,2.8,6.9,4.5,10.8,5.1c3.9,0.6,7.9,0.4,11.2-0.8c1.7-0.6,3.2-1.5,4.3-2.6
	c1.1-1.1,1.8-2.5,1.9-4c0.3-3.2-0.5-6.2-1.9-8.7c-1.4-2.4-3.6-4.1-5.7-5c-2.2-0.9-4.4-1-6.2-0.6c-1.8,0.4-3.2,1.4-4.1,2.3
	c-0.9,0.9-1.4,1.9-1.7,2.5c-0.3,0.6-0.4,1-0.4,1s0.1-0.3,0.3-1c0.3-0.6,0.7-1.6,1.5-2.7c0.9-1,2.2-2.2,4.1-2.8
	c1.9-0.6,4.3-0.7,6.8,0.1c2.5,0.8,5,2.5,6.8,5.2c1.8,2.6,2.8,6.1,2.8,9.8c-0.1,2-0.9,4-2.3,5.6c-1.4,1.6-3.2,2.7-5.1,3.5
	c-1.9,0.8-4,1.3-6.2,1.5c-2.2,0.2-4.4,0.2-6.6-0.1c-4.5-0.6-9.2-2.2-13-5.6c-1.9-1.7-3.6-3.8-4.7-6.3c-1.1-2.4-1.6-5.1-1.8-7.8
	c0-0.7,0-1.3,0-2c0.1-0.7,0.1-1.4,0.2-2.1c0-0.7,0.2-1.3,0.3-1.9l0.2-0.9l0.1-0.5l0-0.2l0-0.1l0.1-0.2c0.6-2.6,1.6-5.2,3-7.7
	c1.5-2.5,3.4-4.7,5.8-6.5c2.4-1.8,5.1-3.1,8-3.9c5.8-1.5,12-0.7,17.6,1.5c5.5,2.2,10.5,5.9,14.3,10.7c1.9,2.4,3.6,4.9,4.8,7.7
	c0.3,0.7,0.7,1.4,0.9,2.1l0.8,2.1c0.4,1.5,1,2.9,1.2,4.4c0.2,0.7,0.3,1.5,0.5,2.2l0.3,2.3c0,0.4,0.1,0.8,0.1,1.1l0.1,1.1l0.1,2.1
	l0,0.3l0,0.1l0,0.3l0,0.6l0,1.2c0,0.8,0,1.5-0.1,2.3l-0.3,2.3c-0.1,0.8-0.3,1.5-0.5,2.3c-0.3,1.5-1,3-1.5,4.5
	c-0.7,1.4-1.4,2.9-2.3,4.2c-0.8,1.4-1.9,2.5-2.9,3.8c-1.1,1.1-2.2,2.3-3.4,3.2c-1.2,1-2.5,1.8-3.8,2.7c-0.7,0.4-1.3,0.8-2,1.1
	c-0.7,0.4-1.4,0.7-2,1c-2.7,1.3-5.6,2.2-8.5,2.9l-2.2,0.5c-0.7,0.1-1.5,0.2-2.2,0.3c-1.5,0.2-2.9,0.3-4.4,0.4c-2.9,0-5.9,0-8.7-0.5
	c-5.8-0.7-11.3-2.6-16.3-5.3c-2.4-1.5-4.8-3-6.9-5c-1.1-0.9-2-2-3-3c-0.5-0.5-0.9-1.1-1.3-1.7c-0.4-0.6-0.9-1.1-1.2-1.7l-1.1-1.9
	l-0.3-0.5l-0.2-0.4l-0.4-0.9l-0.4-0.9l-0.2-0.4l-0.2-0.3l-0.1-0.2c-0.2-0.6-0.4-1.2-0.7-1.8c-0.4-1.2-0.9-2.4-1.3-3.6
	c-0.3-1.2-0.7-2.5-1-3.7c-2.8-9.7-2.5-19.7,0-28.2c1.3-4.2,3-8.1,4.8-11.5c1.8-3.5,3.7-6.6,5.2-9.7c0.2-0.4,0.4-0.8,0.6-1.2
	c0.1-0.4,0.3-0.7,0.4-1.1c0.1-0.4,0.3-0.7,0.4-1.1c0.1-0.4,0.2-0.8,0.2-1.1c0.1-0.4,0.2-0.7,0.2-1.1c0.1-0.4,0.1-0.7,0.1-1.1
	c0.1-0.7,0.2-1.5,0.1-2.2c0-2.9-0.5-5.6-1-8c-1.2-4.8-2.7-8.4-3.8-10.8C2056.7,243.3,2056,242.1,2056,242.1z"/>
<path class="st14" d="M2088.8,372.6c0,0-0.1,1.2-0.2,3.6c-0.1,2.3-0.3,5.8-0.6,10.1c-0.3,4.4-0.6,9.7-1,15.7
	c-0.4,6.1-0.9,12.9-1.6,20.4c-0.6,7.5-1.3,15.5-2.1,24.1c-0.8,8.5-1.6,17.5-2.6,26.8c-0.5,4.6-1,9.4-1.5,14.2
	c-0.5,4.8-1,9.6-1.6,14.5c-1.1,9.8-2.2,19.7-3.4,29.6c-1.2,9.9-2.4,19.8-3.7,29.5c-0.6,4.9-1.3,9.7-1.9,14.5
	c-0.7,4.8-1.3,9.5-1.9,14.1c-1.3,9.3-2.6,18.2-3.8,26.7c-1.3,8.5-2.5,16.5-3.7,23.9c-1.1,7.4-2.3,14.2-3.3,20.2
	c-1,6-2,11.2-2.7,15.5c-0.8,4.3-1.4,7.7-1.9,10c-0.5,2.3-0.7,3.5-0.7,3.5s0.1-1.2,0.2-3.6c0.1-2.3,0.3-5.8,0.6-10.1
	c0.3-4.4,0.6-9.7,1-15.7c0.4-6.1,0.9-12.9,1.6-20.4c0.6-7.5,1.3-15.5,2.1-24.1c0.8-8.5,1.7-17.5,2.6-26.8c0.5-4.6,1-9.4,1.5-14.2
	c0.5-4.8,1-9.6,1.6-14.5c1.1-9.8,2.3-19.7,3.4-29.6c1.2-9.9,2.4-19.8,3.7-29.5c0.6-4.9,1.3-9.7,1.9-14.5c0.7-4.8,1.3-9.5,1.9-14.1
	c1.3-9.3,2.6-18.2,3.8-26.7c1.3-8.5,2.5-16.5,3.7-23.9c1.1-7.4,2.3-14.2,3.3-20.2c1-6,2-11.2,2.7-15.5c0.8-4.3,1.4-7.7,1.9-10
	C2088.6,373.8,2088.8,372.6,2088.8,372.6z"/>
<path class="st14" d="M2116.7,372.6c0,0,0.1,1.7,0.4,4.9c0.2,3.2,0.6,7.9,1,13.8c0.4,6,0.9,13.2,1.3,21.5c0.5,8.3,1,17.7,1.5,27.9
	c0.5,10.2,1.1,21.3,1.6,33c0.5,11.7,1.1,24.1,1.5,36.8c0.4,12.8,1,26,1.3,39.4c0.4,13.4,0.7,27.1,1.1,40.7
	c0.3,13.6,0.5,27.3,0.8,40.7c0.3,13.4,0.3,26.6,0.5,39.4c0.2,12.8,0.2,25.1,0.2,36.9c0,5.9,0,11.6,0,17.1c0,5.5,0,10.8-0.1,16
	c0,10.2-0.1,19.6-0.2,27.9c-0.1,8.3-0.2,15.6-0.3,21.5c-0.1,6-0.3,10.7-0.3,13.9c-0.1,3.2-0.2,4.9-0.2,4.9s-0.1-1.7-0.4-4.9
	c-0.2-3.2-0.6-7.9-1-13.8c-0.4-6-0.9-13.2-1.4-21.5c-0.5-8.3-1-17.7-1.5-27.9c-0.3-5.1-0.5-10.4-0.8-15.9
	c-0.2-5.5-0.5-11.2-0.8-17.1c-0.5-11.7-1.1-24.1-1.5-36.8c-0.4-12.8-1-26-1.3-39.4c-0.4-13.4-0.7-27.1-1.1-40.7
	c-0.3-13.6-0.5-27.3-0.8-40.7c-0.3-13.4-0.3-26.6-0.5-39.4c-0.2-12.8-0.2-25.1-0.2-36.9c-0.1-11.7,0-22.8,0-33
	c0-10.2,0.1-19.6,0.2-27.9c0.1-8.3,0.2-15.6,0.3-21.5c0.1-6,0.3-10.7,0.3-13.9C2116.7,374.3,2116.7,372.6,2116.7,372.6z"/>
<path class="st14" d="M2126.9,365.8c0,0,0.7,1.7,2,5c1.3,3.3,3.3,8,5.7,14.2c2.4,6.1,5.4,13.5,8.7,22c3.3,8.5,7.1,18.1,11,28.7
	c4,10.5,8.4,21.9,12.8,34c4.5,12.1,9.3,24.8,14.1,38c2.4,6.6,4.9,13.3,7.3,20.1c2.5,6.8,5,13.7,7.5,20.6c5,13.9,10,28,15,42.2
	c4.9,14.2,9.9,28.3,14.7,42.3c1.2,3.5,2.4,7,3.6,10.4c1.2,3.5,2.4,6.9,3.5,10.3c2.3,6.9,4.6,13.6,6.9,20.3
	c4.6,13.3,8.8,26.2,12.9,38.4c2,6.1,4,12.1,5.9,17.8c1.9,5.8,3.7,11.3,5.4,16.7c3.5,10.7,6.6,20.5,9.4,29.3
	c2.8,8.7,5.1,16.3,7.1,22.6c2,6.3,3.4,11.2,4.4,14.6c1,3.4,1.5,5.2,1.5,5.2s-0.7-1.7-2-5c-1.3-3.3-3.3-8-5.7-14.2
	c-2.4-6.1-5.4-13.5-8.7-22c-3.3-8.5-7.1-18.1-11-28.7c-2-5.3-4.1-10.7-6.3-16.4c-2.1-5.7-4.3-11.6-6.6-17.6
	c-4.5-12.1-9.3-24.8-14.1-38c-2.4-6.6-4.9-13.3-7.3-20.1c-1.2-3.4-2.5-6.8-3.7-10.3c-1.2-3.4-2.5-6.9-3.7-10.4
	c-5-13.9-10-28-15-42.2c-4.9-14.2-9.9-28.3-14.7-42.3c-2.4-7-4.8-13.9-7.1-20.8c-2.3-6.9-4.6-13.6-6.9-20.3
	c-4.6-13.3-8.8-26.2-12.9-38.5c-4.1-12.2-7.9-23.8-11.3-34.5c-3.5-10.7-6.6-20.5-9.4-29.3c-2.8-8.7-5.1-16.3-7.1-22.6
	c-2-6.3-3.4-11.2-4.5-14.6C2127.5,367.6,2126.9,365.8,2126.9,365.8z"/>
<path class="st13" d="M2028.6,562.7c-8.6-16.5-16.8-23.3-14.4-30.2c2.4-6.9,8-40.9,8-40.9c48.4-26.8,47.6-79.5,47.6-79.5
	c-12.6,13.4-25.2,15.7-25.2,15.7c19-25,5.9-73.9,5.9-73.9c-9.8,32.7-33.2,51.2-33.2,51.2c2.3-10.6,0-29.1,0-29.1
	c-17.2,23.4-40.9,39.4-40.9,39.4c12.1-18,15.7-46.1,12.4-40.7c-0.2,0.3-0.4,0.6-0.6,0.9c-4.6,5.9-22,19-31.8,25.4
	c-10.3,6.7-31.1,34.5-31.1,34.5l-5.1,2.6c-17.2,6.2-81.6,55.8-86.5,58.2c-4.9,2.3-7.7,2.1-0.8-7.7c6.9-9.8,50.4-41.9,50.4-41.9
	c-29.9,2.3-53.8,27.5-53.8,27.5c-3.3,1.5-2.1-4.4-2.1-4.4c2.6-12.9,37.1-28.1,37.1-28.1c-22.1-1.5-37.6,15.4-37.6,15.4
	c-0.6-5.5-3.7-8-5.7-8.7v-0.3c0,0,0.2,0,0,0.1c-0.2-0.1,0-0.1,0-0.1v0.3c-1,0.8-3.7,3.2-4.3,8.7c0,0-14.4-17-36.5-15.4
	c0,0,34.6,15.2,37.2,28.1c0,0,1.4,5.9-2,4.4c0,0-23.9-25.2-53.8-27.5c0,0,43.5,32.2,50.5,41.9c6.9,9.8,4.1,10-0.8,7.7
	c-4.9-2.3-69.2-52-86.5-58.2l-5.1-2.6c0,0-20.8-27.8-31.1-34.5c-9.8-6.4-27.2-19.4-31.8-25.4c-0.2-0.3-0.5-0.6-0.6-0.9
	c-3.3-5.4,0.3,22.6,12.4,40.7c0,0-23.7-16-40.9-39.4c0,0-2.3,18.5,0,29.1c0,0-23.4-18.5-33.2-51.2c0,0-13.1,48.9,5.9,73.9
	c0,0-12.6-2.3-25.2-15.7c0,0-0.8,52.8,47.6,79.5c0,0,5.6,34.1,8,40.9c2.4,6.9-5.8,13.7-14.4,30.2s-25.4,72.4-5.1,103.6
	c0,0-1,4.1-9.3,0c0,0,3.1,9.6,13.4,13c10.3,3.4,15.8,6.9,16.8,15.8c1,8.9-0.3,19.9-0.3,19.9s-7.9-11.3-11-11.3
	c-3.1,0-7.5,15.8-7.5,28.8s4.1,53.2,4.1,53.2s3.4-42.2,6.9-49.4c3.4-7.2,6.2-5.5,6.2,3.4c0,8.9-11.3,77.5,8.9,96.1l2.1-116.7
	c0,0,0.3-16.8,11-20.2c10.6-3.4,11,20.2,11.3,30.2c0.3,10,10,57.6,16.8,70c0,0-22.6-35-28.1-62.1c0,0-16.8,95.7,45,130.4
	c0,0-13-25.7-12.7-38.8c0,0,13.4,16.1,21.3,17.2c0,0-13.4-31.9-12.4-42.9c0,0,15.1,29.2,26.8,37.4c0,0-21.3-75.1,4.8-111.2
	c0,0,3.1,17.8,1.4,30.5c-1.7,12.7-12,41.2,0.3,70c12.4,28.8,38.1,52.8,38.1,52.8s-17.7-26.1-10.5-42.9c0,0,18.7,62.7,66.7,84.5v0.2
	c1,0-0.1-0.1,0-0.1c0.1,0,0,0.1,0,0.1v-0.2c50-21.8,68.1-84.5,68.1-84.5c7.2,16.8-9.5,42.9-9.5,42.9s25.9-24,38.3-52.8
	c12.4-28.8,2.2-57.3,0.4-70c-1.7-12.7,1.4-30.5,1.4-30.5c26.1,36,4.8,111.2,4.8,111.2c11.7-8.2,26.8-37.4,26.8-37.4
	c1,11-12.3,42.9-12.3,42.9c7.9-1,21.3-17.2,21.3-17.2c0.3,13-12.7,38.8-12.7,38.8c61.8-34.7,45-130.4,45-130.4
	c-5.5,27.1-28.1,62.1-28.1,62.1c6.9-12.4,16.5-60,16.8-70c0.3-10,0.7-33.6,11.3-30.2c10.6,3.4,11,20.2,11,20.2l2.1,116.7
	c20.2-18.5,8.9-87.2,8.9-96.1c0-8.9,2.7-10.6,6.2-3.4c3.4,7.2,6.9,49.4,6.9,49.4s4.1-40.1,4.1-53.2s-4.5-28.8-7.5-28.8
	c-3.1,0-11,11.3-11,11.3s-1.4-11-0.3-19.9c1-8.9,6.5-12.4,16.8-15.8c10.3-3.4,13.4-13,13.4-13c-8.2,4.1-9.3,0-9.3,0
	C2054,635.1,2037.1,579.2,2028.6,562.7z M2057.7,434.7c0,0-15.1,46.7-74.1,62.5l15.1-12.4l-19.9,5.5
	C1978.8,490.3,2046,452,2057.7,434.7z M2046.8,383.9c0,0-6.9,50.1-43.9,57c0,0,11.3-13.6,12.9-24.7
	C2015.7,416.2,2042.3,392.3,2046.8,383.9z M1971.4,398.7c0,0-31.9,38.6-38.6,57.1c0,0,20.5-29.8,34-36.5c0,0-4.6,8.2-2.6,18
	c0,0,25.2-16.5,32.4-28.3c0,0-14.4,27.3-32.4,38.6c0,0,26.1-13.3,38-26.2c2.7-3.5,4.2-5.7,4.2-5.7c-1,1.9-2.4,3.8-4.2,5.7
	c-7.2,9.4-22.9,28.2-40.6,39.1c0,0-8.8,7.7-15.7,24.2c-6.9,16.5-7.5,24.2-7.5,24.2s-2.1-20.1,7.5-36c0,0-12.6,15.4-19.3,36
	c-6.7,20.6-14.9,30.9-21.6,32.4c0,0,10.8-12.9,6.2-28.3c0,0-11.8,9.3-17.5,15.4c0,0,9.3-19.6,18.5-35c0,0-15.4,14.9-21.6,22.1
	c0,0,10.3-24.7,17-34.5c0,0-13.4,9.8-17,12.9c0,0,21.1-29.3,28.3-37.6C1918.9,456.3,1943.1,413.1,1971.4,398.7z M1970.9,626.4
	c-5.7,23-24.9,27-24.9,27l8.5,3.5c-12.4,7.7-25.2,2.2-25.2,2.2l7.3,7.8c-19-2.6-28.6-10.8-28.6-10.8v6.7
	c-19-4.1-34.4-25.5-34.4-25.5s14.8,17.5,45.2,5.6c30.4-11.8,23.4-56.6,23.4-56.6c7.9-0.3,19.9-22.3,19.9-22.3
	c5.7,11.3,3.6,26.8,3.6,26.8l7.2-4.7c5.1,24.9-8.2,40.3-8.2,40.3H1970.9z M1918.9,615.4c5.7-14.4-4.1-23.7-4.1-23.7
	c4.1-2.6,15.4-3.6,15.4-3.6c13.9,33.5-6.1,51-26.1,51c-20.1,0-30.5-17.1-30.5-17.1c1.5-3.6,7.2-8.2,7.2-8.2s7.7,8.8,13.9,11.8
	C1900.9,628.8,1913.3,629.8,1918.9,615.4z M1913.6,455.8c0,0-40.9,23.2-50.2,35C1863.3,490.8,1867,470.2,1913.6,455.8z
	 M1881.9,494.9c0,0-13.4,8.8-18.5,13.4C1863.3,508.3,1862.7,497.2,1881.9,494.9z M1885,541.3c-2.6,6.2-19,14.4-19,14.4
	C1869,543.8,1885,541.3,1885,541.3z M1863.3,529.2c5.7-5.9,18.5-10.6,18.5-10.6l-24.2,22.6C1857.7,541.3,1857.7,535.1,1863.3,529.2z
	 M1855.1,570.1l-21.1,18C1838.6,573.2,1855.1,570.1,1855.1,570.1z M1830,618.5c13-6.7,33-25.2,33-25.2v8.8
	c30-13.9,82.1-72.8,82.1-72.8c-18.8,58.4-115.1,113.5-115.1,113.5V618.5z M1813,618.5v24.2c0,0-96.8-55.1-115.6-113.5
	c0,0,51.6,58.9,81.6,72.8v-8.8C1779,593.2,1800,611.8,1813,618.5z M1707.3,666.9l8-7.7c0,0-12.7,5.7-25.1-2.1l8.6-3.7
	c0,0-19.2-4-24.9-27h6.2c0,0-13.4-15.4-8.2-40.3l7.2,4.5c0,0-2.1-15.4,3.6-26.7c0,0,12,22.1,19.9,22.3c0,0-7.1,44.8,23.3,56.6
	c30.4,11.8,44.5-5.6,44.5-5.6s-17.4,21.4-35.4,25.5V656C1735,656,1726.3,664.3,1707.3,666.9z M1740.7,639.1c-20.1,0-40-17.6-26.1-51
	c0,0,11.3,1,15.4,3.6c0,0-9.8,9.3-4.1,23.7c5.7,14.4,18,13.4,24.2,10.3c6.2-3.1,13.9-11.8,13.9-11.8s5.7,4.6,7.2,8.2
	C1771.2,622.1,1760.8,639.1,1740.7,639.1z M1759.9,541.3c0,0,16,2.6,19,14.4C1778.9,555.7,1762.5,547.4,1759.9,541.3z M1810.8,588.1
	l-21.1-18C1789.7,570.1,1806.2,573.2,1810.8,588.1z M1763,518.6c0,0,12.9,4.6,18.5,10.6c5.7,5.9,5.7,12.1,5.7,12.1L1763,518.6z
	 M1781.5,508.3c-5.1-4.6-18.5-13.4-18.5-13.4C1782.2,497.2,1781.5,508.3,1781.5,508.3z M1781.5,490.8c-9.3-11.8-50.2-35-50.2-35
	C1777.8,470.2,1781.5,490.8,1781.5,490.8z M1642.6,421.4c11.9,12.9,38,26.2,38,26.2c-18-11.3-32.4-38.6-32.4-38.6
	c7.2,11.8,32.4,28.3,32.4,28.3c2.1-9.8-2.6-18-2.6-18c13.5,6.7,34,36.5,34,36.5c-6.7-18.5-38.6-57.1-38.6-57.1
	c28.3,14.4,52.5,57.6,52.5,57.6c7.2,8.2,28.3,37.6,28.3,37.6c-3.6-3.1-17-12.9-17-12.9c6.7,9.8,17,34.5,17,34.5
	c-6.2-7.2-21.6-22.1-21.6-22.1c9.3,15.4,18.5,35,18.5,35c-5.7-6.2-17.5-15.4-17.5-15.4c-4.6,15.4,6.2,28.3,6.2,28.3
	c-6.7-1.5-14.9-11.8-21.6-32.4c-6.7-20.6-19.3-36-19.3-36c9.5,16,7.5,36,7.5,36s-0.5-7.7-7.5-24.2s-15.7-24.2-15.7-24.2
	C1665.6,449.6,1649.9,430.8,1642.6,421.4c-1.8-1.9-3.2-3.8-4.2-5.7C1638.4,415.7,1639.9,417.9,1642.6,421.4z M1598.1,383.9
	c4.5,8.4,31.1,32.3,31.1,32.3c1.5,11.1,12.9,24.7,12.9,24.7C1605,434,1598.1,383.9,1598.1,383.9z M1587.1,434.7
	c11.7,17.3,78.9,55.6,78.9,55.6l-19.9-5.5l15.1,12.4C1602.2,481.4,1587.1,434.7,1587.1,434.7z M1746,796.4
	c-7.2-7.5-3.2-17.2-3.2-17.2l19,23.3C1761.8,802.6,1753.2,803.9,1746,796.4z M1757.3,765.5c-7.2-7.5-3.2-17.2-3.2-17.2l19,23.3
	C1773.1,771.7,1764.5,773.1,1757.3,765.5z M1769.4,691.6c-4.9,9.3-22.4,16.5-22.4,16.5c3.1-2.1,9.4-18.5,9.4-18.5
	c-11.7,11.3-33.1,5.7-33.1,5.7l7.9,8.2c-21.9,0.5-46.6-14.9-46.6-14.9l1.8,9.3c-19.6-6.2-33.4-34.5-33.4-34.5v11.8
	c-14-13.4-15.8-38-15.8-38l-4.3,12.2c-6.2-18.5-1.4-35.7-1.4-35.7l-5.1,1.8c-2.6-18,11.9-41.1,11.9-41.1l-8.2,4.6
	c0.5-9,10.8-23.6,10.8-23.6h-5.1c0.5-8,10.8-19.2,10.8-19.2c-17.1-17.5-10.8-39.1-10.8-39.1c2.6,26.7,34.9,44.1,34.9,44.1
	c-5.3,3.6-13.2,14.5-13.2,14.5c4.1-0.5,13.2-4.6,13.2-4.6c-8.9,6.7-14.3,19.1-14.3,19.1l9.6-2.1c-6.3,5.1-12.2,20.1-12.2,20.1
	l8.8-5.7c0,0-18,24.2,0.5,60.2c18.5,36,55.6,29.9,55.6,29.9l-2.7,5.1c9.1-1.5,20.4-10.8,20.4-10.8l-5.1,10.3
	c11.6-4.1,22.9-16,22.9-16l-4.1,11.8c9.8-8.2,39.6-33.9,39.6-33.9l-2.6,20.5c7.7-9.8,18.5-13.4,18.5-13.4s-3.6,6.7-13.4,26.8
	c-9.8,20.1,3.1,51.5,3.1,51.5C1777.9,716.3,1769.4,691.6,1769.4,691.6z M1790.3,827.3c-7.2-7.5-3.2-17.2-3.2-17.2l19,23.3
	C1806,833.4,1797.5,834.8,1790.3,827.3z M1794.4,790.2c-7.2-7.5-3.2-17.2-3.2-17.2l19,23.3C1810.2,796.4,1801.6,797.8,1794.4,790.2z
	 M1830.6,710.6c-0.9,13.1-6.8,30.6-8.2,34.3c-1.3-3.7-7.2-21.2-8.2-34.3c-1-14.8-5.1-25.1-0.3-28.1c4.8-3.1,7.2-0.3,7.2-0.3
	l1.3-59.8l1.3,59.8c0,0,2.4-2.7,7.2,0.3C1835.7,685.6,1831.6,695.8,1830.6,710.6z M1834.7,796.4l19-23.3c0,0,4,9.6-3.2,17.2
	C1843.3,797.8,1834.7,796.4,1834.7,796.4z M1854.6,827.3c-7.2,7.5-15.8,6.2-15.8,6.2l19-23.3
	C1857.8,810.1,1861.8,819.7,1854.6,827.3z M1871.8,771.7l19-23.3c0,0,4,9.6-3.2,17.2C1880.3,773.1,1871.8,771.7,1871.8,771.7z
	 M1898.9,796.4c-7.2,7.5-15.8,6.2-15.8,6.2l19-23.3C1902.1,779.2,1906.1,788.8,1898.9,796.4z M2018.3,615.4l-5.1-1.8
	c0,0,4.6,17.2-1.5,35.7l-5.4-12.2c0,0-3.2,24.6-17.2,38v-11.8c0,0-12.4,28.3-31.9,34.5l2.8-9.3c0,0-24.5,15.4-46.4,14.9l8-8.2
	c0,0-21.3,5.7-33-5.7c0,0,6.3,16.5,9.4,18.5c0,0-17.5-7.2-22.4-16.5c0,0-8.5,24.7-26,32.9c0,0,12.9-31.4,3.1-51.5
	c-9.8-20.1-13.4-26.8-13.4-26.8s10.8,3.6,18.5,13.4l-2.6-20.5c0,0,29.9,25.6,39.6,33.9l-4.1-11.8c0,0,11.4,11.8,22.9,16l-5.1-10.3
	c0,0,11.3,9.3,20.4,10.8l-2.7-5.1c0,0,37.1,6.2,55.6-29.9c18.5-36,0.5-60.2,0.5-60.2l8.8,5.7c0,0-5.8-14.9-12.2-20.1l9.6,2.1
	c0,0-5.4-12.4-14.3-19c0,0,9.1,4.1,13.2,4.6c0,0-7.9-10.8-13.2-14.4c0,0,32.3-17.2,34.9-44c0,0,6.3,21.5-10.8,38.9
	c0,0,10.3,11.2,10.8,19.2h-5.1c0,0,10.3,14.5,10.8,23.6l-8.2-4.8C2006.4,574.1,2020.8,597.4,2018.3,615.4z"/>
</svg>
