<svg xmlns="http://www.w3.org/2000/svg" viewBox="0 0 150 150"><defs><style>.a{fill:#fff;}</style></defs><path class="a" d="M0,37.76a1.52,1.52,0,0,0,.26-.32c1.29-3.4,3.35-4.85,7-4.89,2,0,4,0,6,0a1.64,1.64,0,0,0,1.83-1.29c.69-2.08,1.46-4.13,2.2-6.2,1.26-3.47,3.28-4.92,6.92-4.93H54.39C58,20.15,60,21.6,61.23,25c.7,1.92,1.47,3.83,2,5.79.42,1.44,1.21,1.83,2.65,1.83q30-.06,59.92,0a16.47,16.47,0,0,1,2.33.13,6.44,6.44,0,0,1,5.76,6.5c0,2.58,0,5.17,0,7.76,0,.47,0,.95.07,1.62,3.15,0,6.22-.1,9.28,0A6.9,6.9,0,0,1,150,55.25a10.51,10.51,0,0,1-.36,2.89q-7.73,32.37-15.5,64.72c-.17.71-.27,1.44-.46,2.14a6.48,6.48,0,0,1-6,4.79c-.63,0-1.27,0-1.9,0q-58.76,0-117.49.05c-4.13,0-7-1.33-8.31-5.36Zm67,86.89h59.2c2.37,0,2.59-.23,2.59-2.6V40.44c0-2.5-.18-2.68-2.65-2.68q-30.41,0-60.81,0a6.46,6.46,0,0,1-6.66-4.66c-.76-2.11-1.55-4.21-2.25-6.34a1.89,1.89,0,0,0-2-1.46q-15,0-30,0a2,2,0,0,0-2.13,1.56c-.75,2.27-1.57,4.51-2.42,6.74a6.27,6.27,0,0,1-6,4.16c-2,0-3.91,0-5.86,0-2.52,0-2.69.17-2.69,2.64v81.46c0,2.65.13,2.79,2.84,2.79ZM134,100.23h.14c.11-.36.23-.73.32-1.1q3.68-15.28,7.33-30.56,1.44-6,2.86-11.94c.39-1.66-.14-2.82-1.55-2.88-3-.12-6,0-9.1,0Z"/><path class="a" d="M84.43,73.21c1.45,0,2.67,0,3.88,0a2.6,2.6,0,0,1,2.83,2.85q0,18.83,0,37.65c0,2-1,2.91-3.19,2.92q-10.62,0-21.25,0-10.19,0-20.36,0c-2.75,0-3.55-.82-3.55-3.61V76.84c0-2.83.81-3.62,3.68-3.63h3c0-.79,0-1.5,0-2.21.2-3.88-.1-7.88.73-11.63C52,51.1,60.38,45.65,68.93,46.58A17.45,17.45,0,0,1,84.41,63.19C84.52,66.45,84.43,69.72,84.43,73.21Zm1.42,5.31H48.1V111.4H85.85ZM54.6,73.1H79.16c0-3.51.16-6.93,0-10.32a12.11,12.11,0,0,0-9.73-10.87,12.47,12.47,0,0,0-13.09,6C53.6,62.77,55,68,54.6,73.1Z"/><path class="a" d="M66.67,82.79a8.08,8.08,0,0,1,8,6,7.84,7.84,0,0,1-3.91,8.94,2,2,0,0,0-1.26,2.13c.09,1.46,0,2.93,0,4.39-.05,1.82-1.05,3-2.55,3s-2.53-1.14-2.57-2.94c0-1.56-.07-3.12,0-4.68a1.64,1.64,0,0,0-1.11-1.77,7.93,7.93,0,0,1,1.62-14.73A13.14,13.14,0,0,1,66.67,82.79Zm3.07,7.93a2.77,2.77,0,0,0-5.54,0,2.77,2.77,0,1,0,5.54,0Z"/></svg>