<svg xmlns="http://www.w3.org/2000/svg" viewBox="0 0 150 150"><defs><style>.a{fill:#fff;}</style></defs><path class="a" d="M69.44,150c-2.72-.9-5-2.34-6.3-5.12-5.11,1.71-9,.26-11.76-4.39-5.06,1.7-9,.23-11.5-4.05a29,29,0,0,1-5.63.1,8.47,8.47,0,0,1-6.48-11.13c.85-2.58,1.86-5.1,2.89-7.89-1.38,0-2.58-.06-3.76,0-.29,0-.64.49-.8.83a6.69,6.69,0,0,1-6.51,4.11c-3.9,0-7.8,0-11.71,0a7.45,7.45,0,0,1-7.83-7.81q0-22.17,0-44.34a7.43,7.43,0,0,1,7.56-7.8c6.93-.08,13.86-.06,20.78,0a6.71,6.71,0,0,1,6.17,4,1.66,1.66,0,0,0,1.07.88c3.31.07,6.62,0,10.28,0-8-9-11.73-19.26-10.69-31A38.76,38.76,0,0,1,51.11,8a40,40,0,0,1,57.05,54.51c2.3,0,4.46,0,6.61,0,.23,0,.51-.5.67-.82a6.72,6.72,0,0,1,6.4-4.08q10.17,0,20.35,0c4.11,0,6.52,2.34,7.77,6.09v47.72a4.11,4.11,0,0,0-.25.52c-1.3,3.82-3.77,5.63-7.74,5.64H130.26a6.48,6.48,0,0,1-6.26-4,1.37,1.37,0,0,0-1.49-1c-2.53.06-5.07,0-7.61,0a2.42,2.42,0,0,0-1.22.29c-1,.61-1.92,1.3-2.9,2a.72.72,0,0,0,0,.23c1.06,4.86-.38,8.19-4.67,10.52-.81.45-.65.91-.52,1.54a8.71,8.71,0,0,1-4.12,9.39c-.49.29-1,.54-1.52.82a8.83,8.83,0,0,1-.34,6.63A8.66,8.66,0,0,1,88,148.08c-2.82-1.29-5.59-2.7-8.36-4-2.57,4.17-2.7,4.28-6.93,6ZM89.28,62.53v0c3.8,0,7.61,0,11.42,0a2.62,2.62,0,0,0,1.79-.89,33.82,33.82,0,0,0,6.92-27.66A34.56,34.56,0,0,0,68.59,5.72C54.38,8.45,44.94,17.17,41.28,31.15s.33,25.9,11.12,35.5a3.72,3.72,0,0,0,2.2.82c4.39.08,8.78,0,13.17.08a3,3,0,0,0,2.65-1.14,10.51,10.51,0,0,1,8.76-3.89C82.55,62.56,85.91,62.53,89.28,62.53ZM64.71,72.61H34.59Q31,92.46,27.34,112.52c1.62,0,3,0,4.44,0a4,4,0,0,0,2.8-.9,8.6,8.6,0,0,1,11.21,1c.37.37.72.75,1.11,1.16a8.91,8.91,0,0,1,7.45-1.43,9,9,0,0,1,5.84,4.86,8.86,8.86,0,0,1,8.51.75c2.69,1.79,3.76,4.47,3.91,7.65,3.74-.3,6.64,1,8.6,4.08s1.41,6.32,0,9.53c2.9,1.42,5.65,2.77,8.42,4.09,2.29,1.09,4.42.47,5.37-1.51s.15-4.08-2.09-5.19c-2-1-4-1.89-5.93-2.85-1.67-.81-2.27-2.15-1.62-3.54s2.08-1.76,3.76-1c1.94.92,3.86,1.88,5.8,2.79,2.25,1,4.43.38,5.38-1.59s.13-4.05-2.12-5.16c-2-1-4.13-2-6.19-3-1.68-.83-2.26-2.14-1.59-3.53s2.07-1.76,3.76-1c1.9.89,3.78,1.81,5.67,2.72,2.69,1.28,4.87.76,5.88-1.39s0-4.11-2.71-5.42c-1.76-.83-3.57-1.58-5.26-2.54a3.36,3.36,0,0,1-1.59-1.89,2.65,2.65,0,0,1,.79-2.27,3.29,3.29,0,0,1,2.65-.36c2.23.85,4.32,2,6.5,3a3.72,3.72,0,0,0,5.4-3.2c0-2-1.18-3.06-2.82-3.89q-13.8-7-27.56-14.15a1.56,1.56,0,0,0-2.13.32C75.13,92.35,71.2,95.86,67.3,99.4a9.84,9.84,0,0,1-6.72,2.83A9.95,9.95,0,0,1,53,85.6c3.39-3.85,6.88-7.59,10.33-11.38C63.72,73.76,64.11,73.29,64.71,72.61Zm50.68-5.12h-1.92c-10.29,0-20.57.05-30.86,0-7.31,0-6.27-.2-10.77,4.73q-7.56,8.27-15.05,16.57a4.95,4.95,0,0,0,7,7c.81-.71,1.6-1.43,2.4-2.15Q74.6,86.07,83,78.48c1.3-1.17,2.76-1.19,3.77-.15s.91,2.58-.44,3.85c-.73.7-1.49,1.37-2.34,2.14l1.39.74c8.57,4.4,17.14,8.82,25.74,13.19a9,9,0,0,1,5.34,7.48c.06.56.06,1.13.09,1.7h6.08C120.22,94.08,117.82,80.86,115.39,67.49ZM145,87.59V65.65c0-2-.86-3.09-2.69-3.1q-10.17-.06-20.34,0c-1.57,0-2.13.8-1.91,2.39,0,.34.08.68.14,1l8.1,44.42c.34,1.84.71,2.16,2.63,2.16q5.41,0,10.83,0c2.39,0,3.24-.86,3.24-3.28ZM5,92.57v21.21c0,3.08.65,3.73,3.8,3.73h7.9c5.09,0,4.52.49,5.42-4.43Q26,91.81,29.89,70.53c.44-2.41-.09-3-2.54-3H8.63C5.8,67.53,5,68.29,5,71.06Q5,81.82,5,92.57Zm50.75,28.72a3.84,3.84,0,0,0-2.93-4,3.57,3.57,0,0,0-4.11,2c-1.63,4.06-3.21,8.15-4.62,12.29a3.63,3.63,0,0,0,3.75,4.56,3.78,3.78,0,0,0,3.46-2.7c1.36-3.65,2.76-7.28,4.12-10.93A10.52,10.52,0,0,0,55.79,121.29Zm11.69,4.42a3.85,3.85,0,0,0-2.94-4A3.68,3.68,0,0,0,60.31,124c-1.45,3.67-2.83,7.36-4.21,11.06-.91,2.42-.07,4.51,2.06,5.29s4-.25,4.92-2.64c1.37-3.54,2.7-7.09,4-10.65A13.77,13.77,0,0,0,67.48,125.71ZM39.53,115.14a3.48,3.48,0,0,0-3.37,2.16c-1.29,3.26-2.54,6.54-3.68,9.85a3.55,3.55,0,0,0,2.05,4.34,3.51,3.51,0,0,0,4.66-1.55,110.85,110.85,0,0,0,3.92-10.37A3.55,3.55,0,0,0,39.53,115.14ZM77.38,134.8a3.79,3.79,0,0,0-2.9-4A3.62,3.62,0,0,0,70.29,133c-.94,2.24-1.78,4.53-2.6,6.82a3.73,3.73,0,1,0,7,2.58c.85-2.12,1.63-4.27,2.42-6.42A7.78,7.78,0,0,0,77.38,134.8Z"/><path class="a" d="M67.11,41.79C73,35.3,78.58,29,84.25,22.77A7.48,7.48,0,0,1,96.59,24c1.58,2.92,1.11,6.18-1.33,8.91q-6.74,7.51-13.51,15C79,51,76.23,54.12,73.43,57.17c-3.48,3.8-8,3.88-11.66.25q-3.37-3.35-6.72-6.72c-3.24-3.28-3.4-7.83-.4-10.85s7.75-2.94,11,.25C66.13,40.58,66.55,41.13,67.11,41.79Zm25.42-13.9c-.14-1.46-.67-2.32-1.84-2.68-1.33-.41-2.21.3-3,1.22l-18,20c-1.61,1.78-2.87,1.82-4.57.16-1-1-2-2-3-3-1.34-1.3-2.77-1.4-3.86-.31s-1,2.49.34,3.85Q62,50.58,65.4,54c1.5,1.49,2.84,1.49,4.26-.08q11-12.15,21.91-24.35A8.66,8.66,0,0,0,92.53,27.89Z"/></svg>