<?xml version="1.0" encoding="utf-8"?>
<!-- Generator: Adobe Illustrator 24.3.0, SVG Export Plug-In . SVG Version: 6.00 Build 0)  -->
<svg version="1.1" id="Layer_1" xmlns="http://www.w3.org/2000/svg" xmlns:xlink="http://www.w3.org/1999/xlink" x="0px" y="0px"
	 viewBox="0 0 50 50" style="enable-background:new 0 0 50 50;" xml:space="preserve">
<style type="text/css">
	.st0{fill:#FFFFFF;}
</style>
<g>
	<path class="st0" d="M24.3,0c0.5,0,0.9,0,1.4,0c0.2,0,0.3,0.1,0.5,0.1c1.1,0.1,2.2,0.1,3.2,0.3c6.7,1.3,12.1,4.7,16,10.2
		c2.5,3.5,4,7.4,4.4,11.7c0.1,0.7,0.1,1.3,0.2,2c0,0.4,0,0.8,0,1.2c0,0.2-0.1,0.4-0.1,0.6c-0.2,1.5-0.3,3.1-0.6,4.6
		c-3,12.3-14.6,20.5-27.3,19c-2.9-0.3-5.7-1.2-8.3-2.5c-0.3-0.2-0.6-0.2-1-0.1c-2.8,0.8-5.6,1.6-8.4,2.4C3.5,49.8,2.8,50,2,49.9
		c-1.6-0.1-2.4-1.7-1.7-3.1c1.2-2.5,2.3-5.1,3.5-7.6C4,38.8,3.9,38.4,3.7,38c-3.3-5.5-4.4-11.5-3.1-17.9C1.8,13.6,5.2,8.5,10.6,4.7
		c3.5-2.5,7.5-4,11.8-4.4C23,0.2,23.7,0.1,24.3,0z M6,44.6c0.2,0,0.4-0.1,0.5-0.1c2-0.5,4-1.1,6-1.7c0.8-0.2,1.5-0.1,2.3,0.3
		c3.1,1.8,6.5,2.6,10.1,2.7c2,0,3.9-0.3,5.8-0.8c10-2.9,16.4-12.8,14.7-23.3c-0.8-4.6-2.9-8.5-6.3-11.7c-4.5-4.2-9.9-6-16.1-5.5
		c-3,0.2-5.9,1.2-8.5,2.7C7.1,11.5,3.4,19.6,4.4,27.8c0.4,3.3,1.6,6.3,3.5,9c0.6,0.9,0.7,1.8,0.2,2.8c-0.7,1.5-1.4,3-2,4.4
		C6.1,44.2,6.1,44.3,6,44.6z"/>
	<path class="st0" d="M32,36.4c-2.1,0-3.9-0.6-5.7-1.4c-4.7-2.3-8.6-5.6-11.5-10c-1.1-1.6-1.8-3.4-2-5.3c-0.2-2.2,0.7-4.4,2.9-5.7
		c0.9-0.5,1.8-0.4,2.6,0.2c1.3,1,1.9,2.4,2.4,3.8c0.4,1.4,0.2,2.6-0.8,3.8c-1.1,1.3-1.1,1.3-0.1,2.7c1.9,2.9,4.4,5,7.6,6.3
		c0.8,0.4,1.2,0.3,1.7-0.5c0.2-0.4,0.5-0.7,0.7-1.1c0.6-1.1,1.5-1.5,2.8-1.2c1.3,0.3,2.6,0.8,3.6,1.7c1.3,1.1,1.5,2.4,0.7,3.9
		C36,35.2,34.4,36.5,32,36.4z"/>
</g>
</svg>
